<?xml version="1.0" encoding="utf-8"?>
<!-- Generator: Adobe Illustrator 19.2.1, SVG Export Plug-In . SVG Version: 6.00 Build 0)  -->
<!DOCTYPE svg PUBLIC "-//W3C//DTD SVG 1.1//EN" "http://www.w3.org/Graphics/SVG/1.1/DTD/svg11.dtd">
<svg version="1.1" id="Layer_1" xmlns="http://www.w3.org/2000/svg" xmlns:xlink="http://www.w3.org/1999/xlink" x="0px" y="0px"
	 width="104px" height="28.5px" viewBox="0 0 104 28.5" style="enable-background:new 0 0 104 28.5;" xml:space="preserve">
<style type="text/css">
	.st0{fill-opacity:0.302;}
</style>
<g transform="matrix( 1, 0, 0, 1, 0,0) ">
	<g>
		<g id="Layer1_0_FILL">
			<path class="st0" d="M102.4,13.9c0-3.9-1.4-7.2-4.1-9.9S92.3,0,88.4,0H13.9c-3.9,0-7.2,1.4-9.9,4.1S0,10.1,0,13.9
				c0,3.8,1.4,7.1,4.1,9.8s6,4,9.9,4h74.5c3.9,0,7.2-1.4,9.9-4C101,21.1,102.4,17.8,102.4,13.9z"/>
		</g>
	</g>
</g>
<g>
	<defs>
		<rect id="SVGID_1_" x="8" y="3.6" width="85" height="22"/>
	</defs>
	<clipPath id="SVGID_2_">
		<use xlink:href="#SVGID_1_"  style="overflow:visible;"/>
	</clipPath>
</g>
</svg>
