<?xml version="1.0" encoding="utf-8"?>
<!-- Generator: Adobe Illustrator 26.3.1, SVG Export Plug-In . SVG Version: 6.00 Build 0)  -->
<svg version="1.1" id="Layer_1" xmlns="http://www.w3.org/2000/svg" xmlns:xlink="http://www.w3.org/1999/xlink" x="0px" y="0px"
	 viewBox="0 0 100 30.5" style="enable-background:new 0 0 100 30.5;" xml:space="preserve">
<style type="text/css">
	.st0{fill:#FFFFFF;}
</style>
<g transform="matrix( 1, 0, 0, 1, 0,0) ">
	<g>
		<g id="Layer0_0_FILL">
			<path class="st0" d="M97.1,23.6c-2-2.1-4.4-3.1-7.2-3.1c-1.7,0-3.2,0.4-4.7,1.1c-0.7-1.1-1.6-2.2-2.5-3.2
				c-4.3-4.5-9.4-6.8-15.4-6.8c-1.7,0-3.3,0.2-4.8,0.6c-1-1.6-2.1-3.1-3.5-4.6C54.1,2.6,48.2,0,41.3,0S28.6,2.6,23.8,7.7
				c-2.9,3.1-5,6.6-6.1,10.4c-1.2-0.4-2.6-0.5-3.9-0.5c-3.8,0-7,1.4-9.8,4.2c-2.3,2.5-3.6,5.3-4,8.6h100
				C99.8,27.9,98.8,25.6,97.1,23.6z"/>
		</g>
	</g>
</g>
</svg>
