<?xml version="1.0" encoding="utf-8"?>
<!-- Generator: Adobe Illustrator 19.2.1, SVG Export Plug-In . SVG Version: 6.00 Build 0)  -->
<!DOCTYPE svg PUBLIC "-//W3C//DTD SVG 1.1//EN" "http://www.w3.org/Graphics/SVG/1.1/DTD/svg11.dtd">
<svg version="1.1" id="Layer_1" xmlns="http://www.w3.org/2000/svg" xmlns:xlink="http://www.w3.org/1999/xlink" x="0px" y="0px"
	 width="137px" height="45px" viewBox="0 0 137 45" style="enable-background:new 0 0 137 45;" xml:space="preserve">
<style type="text/css">
	.st0{fill:#FFFFFF;}
</style>
<g transform="matrix( 1, 0, 0, 1, 0,0) ">
	<g>
		<g id="Layer0_0_FILL">
			<path class="st0" d="M130,39.8c-0.6-3.4-2.2-6.3-4.8-8.9c-3.4-3.4-7.4-5.1-12.2-5.1c-1.9,0-3.7,0.3-5.3,0.8
				c-1.8-5.7-5-10.8-9.6-15.4C90.6,3.8,81.4,0,70.7,0C59.9,0,50.7,3.8,43.1,11.4c-4.8,4.9-8.1,10.4-9.9,16.5c-3.1-1.3-6.4-2-10.1-2
				c-7.1,0-13.3,2.5-18.4,7.6c-1.9,2-3.5,4.1-4.8,6.4H130z"/>
		</g>
	</g>
</g>
</svg>
