<?xml version="1.0" encoding="utf-8"?>
<!-- Generator: Adobe Illustrator 26.3.1, SVG Export Plug-In . SVG Version: 6.00 Build 0)  -->
<svg version="1.1" id="Layer_1" xmlns="http://www.w3.org/2000/svg" xmlns:xlink="http://www.w3.org/1999/xlink" x="0px" y="0px"
	 viewBox="0 0 599.5 185.6" style="enable-background:new 0 0 599.5 185.6;" xml:space="preserve">
<style type="text/css">
	.st0{fill:#FEFEFE;}
</style>
<path class="st0" d="M1.7,185.6c0,0-10.4-36.2,20.4-52.9c28.3-15.3,52.4,5.3,52.4,5.3s12.3-42.8,55.8-68.6
	c40.2-23.8,92.4-9.7,92.4-9.7s33.4-81.8,120.5-53.8c65.6,21.1,61.8,96.7,61.8,96.7s26.7-9.9,49.9,1c20.9,9.9,30,36.3,30,36.3
	s41.5-10.4,68,2.1c31.7,15,46.6,43.7,46.6,43.7h-222c0,0-6.2-5.8-7.3-19.8c-25.9,21.1-51.6,19.8-51.6,19.8H1.7z"/>
</svg>
