<?xml version="1.0" encoding="utf-8"?>
<!-- Generator: Adobe Illustrator 26.3.1, SVG Export Plug-In . SVG Version: 6.00 Build 0)  -->
<svg version="1.1" id="Layer_1" xmlns="http://www.w3.org/2000/svg" xmlns:xlink="http://www.w3.org/1999/xlink" x="0px" y="0px"
	 viewBox="0 0 90 29.6" style="enable-background:new 0 0 90 29.6;" xml:space="preserve">
<style type="text/css">
	.st0{fill:#FFFFFF;}
</style>
<g transform="matrix( 1, 0, 0, 1, 0,0) ">
	<g>
		<g id="Layer0_0_FILL">
			<path class="st0" d="M90,29.6c-0.7-2.2-1.9-4.2-3.6-5.9c-2.7-2.7-6-4.1-9.9-4.1c-0.4,0-0.8,0-1.2,0.1c-1.3-4.3-3.7-8.1-7.1-11.5
				C62.8,2.7,56.2,0,48.5,0S34.1,2.7,28.6,8.2c-1.9,1.9-3.5,3.9-4.7,6.1c-1.1-0.2-2.3-0.2-3.5-0.2c-5.8,0-10.8,2.1-14.9,6.2
				C2.7,23,0.9,26.1,0,29.6H90z"/>
		</g>
	</g>
</g>
</svg>
