<?xml version="1.0" encoding="utf-8"?>
<!-- Generator: Adobe Illustrator 19.2.1, SVG Export Plug-In . SVG Version: 6.00 Build 0)  -->
<!DOCTYPE svg PUBLIC "-//W3C//DTD SVG 1.1//EN" "http://www.w3.org/Graphics/SVG/1.1/DTD/svg11.dtd">
<svg version="1.1" id="Layer_1" xmlns="http://www.w3.org/2000/svg" xmlns:xlink="http://www.w3.org/1999/xlink" x="0px" y="0px"
	 width="259px" height="105.7px" viewBox="0 0 259 105.7" enable-background="new 0 0 259 105.7" xml:space="preserve">
<g>
	<g transform="matrix( 1, 0, 0, 1, 0,0) ">
		<g transform="matrix( 1, 0, 0, 1, 0,0) ">
			<g>
				<g id="_buttons_btn_continue_shape_0_Layer0_0_FILL_1_">
					<path fill="#CA4827" d="M215,29.8h-2H44c-3.3,0-5,1.7-5,5v38c0,3.3,1.7,5,5,5h167.8h3.2c3.3,0,5-1.7,5-5v-3.7V40.7v-5.9
						C220,31.5,218.3,29.8,215,29.8z"/>
				</g>
			</g>
		</g>
	</g>
	<g transform="matrix( 1, 0, 0, 1, 0,0) ">
		<g transform="matrix( 1, 0, 0, 1, 0,0) ">
			<g>
				<g id="_buttons_btn_continue_shape_0_Layer0_0_FILL">
					<path fill="#F16A3C" d="M215,27.8h-2H44c-3.3,0-5,1.7-5,5v38c0,3.3,1.7,5,5,5h167.8h3.2c3.3,0,5-1.7,5-5v-3.7V38.7v-5.9
						C220,29.5,218.3,27.8,215,27.8z"/>
				</g>
			</g>
		</g>
	</g>
	<g>
		<g id="Layer0_0_FILL_1_">
			<path fill="#FFFFFF" d="M172,54.8v4l7-6l-7-6v4h-6v4H172z"/>
		</g>
	</g>
	<g>
		<defs>
			<rect id="SVGID_1_" x="70" y="39.8" width="95" height="26"/>
		</defs>
		<clipPath id="SVGID_2_">
			<use xlink:href="#SVGID_1_"  overflow="visible"/>
		</clipPath>
		<g clip-path="url(#SVGID_2_)" enable-background="new    ">
			<path fill="#FFFFFF" d="M86.1,45.8c3.1,0,4.6,1.7,4.6,1.7l-0.9,1.3c0,0-1.5-1.4-3.7-1.4c-2.8,0-4.7,2.2-4.7,4.9
				c0,2.7,1.9,5,4.7,5c2.4,0,3.9-1.7,3.9-1.7l1,1.3c0,0-1.7,2-4.9,2c-3.8,0-6.5-2.9-6.5-6.6C79.7,48.6,82.4,45.8,86.1,45.8z"/>
			<path fill="#FFFFFF" d="M97.4,49.4c2.7,0,4.9,2,4.9,4.8c0,2.8-2.2,4.8-4.9,4.8s-4.9-2-4.9-4.8C92.5,51.4,94.7,49.4,97.4,49.4z
				 M97.4,57.4c1.7,0,3.1-1.4,3.1-3.3c0-1.9-1.4-3.2-3.1-3.2c-1.7,0-3.1,1.4-3.1,3.2C94.3,56.1,95.7,57.4,97.4,57.4z"/>
			<path fill="#FFFFFF" d="M104.4,49.6h1.7v1.2c0,0.4,0,0.7,0,0.7h0c0.4-0.8,1.4-2.1,3.4-2.1c2.1,0,3.1,1.2,3.1,3.5v5.8h-1.7v-5.4
				c0-1.3-0.3-2.3-1.7-2.3c-1.4,0-2.5,0.9-2.9,2.2c-0.1,0.4-0.1,0.8-0.1,1.2v4.3h-1.7V49.6z"/>
			<path fill="#FFFFFF" d="M115.6,51.2h-1.2v-1.4h1.2v-2.6h1.7v2.6h2.2v1.4h-2.2v4.1c0,1.8,1.3,2.1,1.9,2.1c0.3,0,0.4,0,0.4,0v1.5
				c0,0-0.3,0-0.6,0c-1.2,0-3.5-0.4-3.5-3.4V51.2z"/>
			<path fill="#FFFFFF" d="M121.7,46h1.8v1.8h-1.8V46z M121.7,49.6h1.7v9.1h-1.7V49.6z"/>
			<path fill="#FFFFFF" d="M126.2,49.6h1.7v1.2c0,0.4,0,0.7,0,0.7h0c0.4-0.8,1.4-2.1,3.4-2.1c2.1,0,3.1,1.2,3.1,3.5v5.8h-1.7v-5.4
				c0-1.3-0.3-2.3-1.7-2.3c-1.4,0-2.5,0.9-2.9,2.2c-0.1,0.4-0.1,0.8-0.1,1.2v4.3h-1.7V49.6z"/>
			<path fill="#FFFFFF" d="M136.9,49.6h1.7v5.4c0,1.3,0.3,2.3,1.7,2.3c1.9,0,3-1.6,3-3.4v-4.3h1.7v9.1h-1.7v-1.2c0-0.4,0-0.7,0-0.7
				h0c-0.4,0.9-1.6,2.1-3.3,2.1c-2.1,0-3.1-1.1-3.1-3.5V49.6z"/>
			<path fill="#FFFFFF" d="M151.7,49.4c2.6,0,3.9,1.9,3.9,4.3c0,0.2-0.1,0.8-0.1,0.8H149c0.1,2,1.5,3,3.1,3c1.6,0,2.7-1.1,2.7-1.1
				l0.7,1.3c0,0-1.4,1.3-3.5,1.3c-2.9,0-4.8-2.1-4.8-4.8C147.2,51.3,149.1,49.4,151.7,49.4z M153.9,53.1c-0.1-1.6-1-2.3-2.2-2.3
				c-1.3,0-2.4,0.8-2.7,2.3H153.9z"/>
		</g>
	</g>
</g>
<g>
</g>
<g>
</g>
<g>
</g>
<g>
</g>
<g>
</g>
<g>
</g>
</svg>
