
<svg xmlns="http://www.w3.org/2000/svg" version="1.1" xmlns:xlink="http://www.w3.org/1999/xlink" preserveAspectRatio="none" x="0px" y="0px" width="640px" height="480px" viewBox="0 0 640 480">
<defs>
<g id="Layer0_0_FILL">
<path fill="#FFFFFF" stroke="none" d="
M 8.25 1.35
L 8.25 -1.35 -8.25 -1.35 -8.25 1.35 8.25 1.35
M 2.45 6.65
Q 2.45 5.65 1.65 4.85 0.95 4.15 -0.05 4.15 -0.95 4.15 -1.75 4.75 -1.85 4.85 -1.95 4.95 -2.55 5.75 -2.55 6.65 -2.55 7.65 -1.85 8.35 -1.05 9.15 -0.05 9.15 0.85 9.15 1.55 8.45 1.65 8.45 1.65 8.35 1.75 8.35 1.75 8.25 2.45 7.55 2.45 6.65
M 1.65 -4.95
Q 1.75 -4.95 1.75 -5.05 2.45 -5.75 2.45 -6.65 2.45 -7.65 1.65 -8.45 0.95 -9.15 -0.05 -9.15 -0.95 -9.15 -1.75 -8.55 -1.85 -8.45 -1.95 -8.35 -2.55 -7.55 -2.55 -6.65 -2.55 -5.65 -1.85 -4.95 -1.05 -4.15 -0.05 -4.15 0.85 -4.15 1.55 -4.85 1.65 -4.85 1.65 -4.95 Z"/>
</g>
</defs>

<g transform="matrix( 1, 0, 0, 1, 0,0) ">
<use xlink:href="#Layer0_0_FILL"/>
</g>
</svg>
