
<svg xmlns="http://www.w3.org/2000/svg" version="1.1" xmlns:xlink="http://www.w3.org/1999/xlink" preserveAspectRatio="none" x="0px" y="0px" width="640px" height="480px" viewBox="0 0 640 480">
<defs>
<g id="Layer6_0_MEMBER_0_FILL">
<path fill="#FFFFFF" stroke="none" d="
M 119.1 177.4
Q 107.4 185.1 84.95 188.7 74.45 190.3 69.45 197.75 64.7 204.7 66.8 213.3 68.85 221.35 75.55 225.8 82.1 230.15 90.85 229.7 115.15 228.5 129.5 193.55 136.75 175.8 139.95 155.25 128.35 171.25 119.1 177.4 Z"/>
</g>

<g id="Layer6_0_MEMBER_1_FILL">
<path fill="#FFFFFF" stroke="none" d="
M 233.2 231.2
Q 236.05 220.7 230 211.8 223.85 202.6 211 199.45 182.4 192.3 169.4 184.4 155.3 175.75 140.65 155.25 144.25 181.5 153.25 204.35 171.05 249.3 202.4 251.25 213.5 251.9 221.75 246.7 230.45 241.25 233.2 231.2 Z"/>
</g>

<g id="Layer6_0_MEMBER_2_FILL">
<path fill="#214D63" stroke="none" d="
M 20.05 121
Q 12.7 122.2 9.3 127.45 6 132.45 7.55 138.5 9 144.15 13.75 147.2 18.4 150.2 24.6 149.85 41.7 148.8 54.75 121.35 61.65 106.95 65.2 91.5 56.85 104.05 47.1 110.65 36.15 118.2 20.05 121 Z"/>
</g>

<g id="Layer6_0_MEMBER_3_FILL">
<path fill="#214D63" stroke="none" d="
M 131.55 175.5
Q 138.55 172.3 141.75 165.1 145.05 157.55 141.55 150.35 138 142.85 128.7 139 107 130 94.8 119.1 82.75 108.15 74.7 90.55 75.9 111.2 82.15 132.4 93.85 171.7 116.55 176.7 124.7 178.55 131.55 175.5 Z"/>
</g>

<g id="Layer6_0_MEMBER_4_FILL">
<path fill="#FFFFFF" stroke="none" d="
M 112.7 258.45
Q 106.9 258.45 102.8 262.55 98.7 266.65 98.7 272.45 98.7 278.25 102.8 282.35 106.95 286.45 112.7 286.45 118.5 286.45 122.6 282.35 126.7 278.25 126.7 272.45 126.7 266.65 122.6 262.55 118.5 258.45 112.7 258.45 Z"/>
</g>

<g id="Layer6_0_MEMBER_5_FILL">
<path fill="#214D63" stroke="none" d="
M 566.9 142.8
Q 564.55 140.45 561.25 140.45 557.95 140.45 555.65 142.8 553.3 145.15 553.3 148.45 553.3 151.7 555.65 154.05 557.95 156.4 561.25 156.4 564.55 156.4 566.9 154.05 569.2 151.7 569.2 148.45 569.2 145.15 566.9 142.8 Z"/>
</g>

<g id="Layer6_0_MEMBER_6_FILL">
<path fill="#FFFFFF" stroke="none" d="
M 257.1 191
Q 254 187.9 249.65 187.9 245.3 187.9 242.25 191 239.15 194.05 239.15 198.4 239.15 202.7 242.25 205.8 245.3 208.9 249.65 208.9 254 208.9 257.1 205.8 260.15 202.7 260.15 198.4 260.15 194.05 257.1 191 Z"/>
</g>

<g id="Layer6_0_MEMBER_7_FILL">
<path fill="#214D63" stroke="none" d="
M 129.25 95.65
Q 127.5 93.9 125.05 93.9 122.6 93.9 120.8 95.65 119.05 97.45 119.05 99.9 119.05 102.35 120.8 104.1 122.6 105.85 125.05 105.85 127.5 105.85 129.25 104.1 131 102.35 131 99.9 131 97.4 129.25 95.65 Z"/>
</g>
</defs>

<g transform="matrix( 0.5, 0, 0, 0.5, -71,-75) ">
<use xlink:href="#Layer6_0_MEMBER_0_FILL"/>
</g>

<g transform="matrix( 0.5, 0, 0, 0.5, -71,-75) ">
<use xlink:href="#Layer6_0_MEMBER_1_FILL"/>
</g>

<g transform="matrix( 0.499969482421875, 0.0056610107421875, -0.005645751953125, 0.499969482421875, -35.15,-39.2) ">
<use xlink:href="#Layer6_0_MEMBER_2_FILL"/>
</g>

<g transform="matrix( 0.493927001953125, -0.077728271484375, 0.077728271484375, 0.493927001953125, -42.5,-31.7) ">
<use xlink:href="#Layer6_0_MEMBER_3_FILL"/>
</g>

<g transform="matrix( 0.5, 0, 0, 0.5, -71,-75) ">
<use xlink:href="#Layer6_0_MEMBER_4_FILL"/>
</g>

<g transform="matrix( 0.5, 0, 0, 0.5, -295.25,-13) ">
<use xlink:href="#Layer6_0_MEMBER_5_FILL"/>
</g>

<g transform="matrix( 0.5, 0, 0, 0.5, -71,-75) ">
<use xlink:href="#Layer6_0_MEMBER_6_FILL"/>
</g>

<g transform="matrix( 0.5, 0, 0, 0.5, -8.7,-25.75) ">
<use xlink:href="#Layer6_0_MEMBER_7_FILL"/>
</g>
</svg>
