<?xml version="1.0" encoding="utf-8"?>
<!-- Generator: Adobe Illustrator 19.2.1, SVG Export Plug-In . SVG Version: 6.00 Build 0)  -->
<!DOCTYPE svg PUBLIC "-//W3C//DTD SVG 1.1//EN" "http://www.w3.org/Graphics/SVG/1.1/DTD/svg11.dtd">
<svg version="1.1" id="Layer_1" xmlns="http://www.w3.org/2000/svg" xmlns:xlink="http://www.w3.org/1999/xlink" x="0px" y="0px"
	 width="57px" height="54px" viewBox="0 0 57 54" enable-background="new 0 0 57 54" xml:space="preserve">
<g transform="matrix( 1.0999755859375, 0, 0, 1.5999755859375, -249.85,-1441.05) ">
	<g>
		<g id="Layer2_0_FILL">
			<path fill="#214D63" d="M264,910.1c-2.9-2.2-6.4-3.2-10.6-3.2c-4.1,0-7.6,1.1-10.4,3.2c-2.9,2.1-4.4,4.7-4.4,7.8
				c0,3.1,1.5,5.7,4.4,7.8c2.9,2.2,6.4,3.2,10.4,3.2c4.1,0,7.6-1.1,10.6-3.2c2.9-2.1,4.3-4.7,4.3-7.8
				C268.3,914.9,266.8,912.3,264,910.1z"/>
		</g>
	</g>
</g>
</svg>
