<?xml version="1.0" encoding="utf-8"?>
<!-- Generator: Adobe Illustrator 19.2.1, SVG Export Plug-In . SVG Version: 6.00 Build 0)  -->
<!DOCTYPE svg PUBLIC "-//W3C//DTD SVG 1.1//EN" "http://www.w3.org/Graphics/SVG/1.1/DTD/svg11.dtd">
<svg version="1.1" id="Layer_1" xmlns="http://www.w3.org/2000/svg" xmlns:xlink="http://www.w3.org/1999/xlink" x="0px" y="0px"
	 width="83px" height="80px" viewBox="0 0 83 80" enable-background="new 0 0 83 80" xml:space="preserve">
<g transform="matrix( 1, 0, 0, 1, 0,-11) ">
	<g transform="matrix( 1, 0, 0, 1, 0,0) ">
		<g>
			<g id="bigSteamParticle_droplet_0_Layer1_0_FILL">
				<path fill="#214D63" fill-opacity="0.949" d="M56,28.6C51.3,23.6,45.6,21,39,21c-6.6,0-12.3,2.5-17,7.6c-4.7,5.1-7,11.2-7,18.4
					c0,7.1,2.3,13.2,7,18.3c4.7,5.1,10.4,7.6,17,7.6s12.3-2.5,17-7.6c4.7-5.1,7-11.2,7-18.3C63,39.8,60.7,33.7,56,28.6z"/>
			</g>
		</g>
		<g>
			
				<path id="bigSteamParticle_droplet_0_Layer1_0_1_STROKES" fill="none" stroke="#FFFFFF" stroke-width="5" stroke-linejoin="round" d="
				M56,28.6c4.7,5.1,7,11.2,7,18.4c0,7.1-2.3,13.2-7,18.3c-4.7,5.1-10.3,7.6-17,7.6s-12.3-2.5-17-7.6c-4.7-5.1-7-11.2-7-18.3
				c0-7.2,2.3-13.3,7-18.4c4.7-5.1,10.4-7.6,17-7.6C45.6,21,51.3,23.6,56,28.6z"/>
		</g>
	</g>
</g>
</svg>
