<?xml version="1.0" encoding="utf-8"?>
<!-- Generator: Adobe Illustrator 19.2.1, SVG Export Plug-In . SVG Version: 6.00 Build 0)  -->
<!DOCTYPE svg PUBLIC "-//W3C//DTD SVG 1.1//EN" "http://www.w3.org/Graphics/SVG/1.1/DTD/svg11.dtd">
<svg version="1.1" id="Layer_1" xmlns="http://www.w3.org/2000/svg" xmlns:xlink="http://www.w3.org/1999/xlink" x="0px" y="0px"
	 width="57px" height="65px" viewBox="0 0 57 65" enable-background="new 0 0 57 65" xml:space="preserve">
<g transform="matrix( 1, 0, 0, 1, 0,0) ">
	<g>
		<g id="Layer2_0_FILL">
			<path fill="#214D63" d="M41.9,21.9C38.6,18.6,34.6,17,30,17c-4.7,0-8.7,1.6-12,4.9c-3.3,3.3-4.9,7.2-4.9,11.9
				c0,4.6,1.6,8.6,4.9,12c3.3,3.3,7.3,4.9,12,4.9c4.6,0,8.6-1.6,11.9-4.9c3.3-3.3,4.9-7.3,4.9-12C46.8,29.1,45.2,25.2,41.9,21.9z"/>
		</g>
	</g>
</g>
</svg>
