<?xml version="1.0" encoding="utf-8"?>
<!-- Generator: Adobe Illustrator 19.2.1, SVG Export Plug-In . SVG Version: 6.00 Build 0)  -->
<!DOCTYPE svg PUBLIC "-//W3C//DTD SVG 1.1//EN" "http://www.w3.org/Graphics/SVG/1.1/DTD/svg11.dtd">
<svg version="1.1" id="Layer_1" xmlns="http://www.w3.org/2000/svg" xmlns:xlink="http://www.w3.org/1999/xlink" x="0px" y="0px"
	 width="111px" height="143px" viewBox="0 0 111 143" enable-background="new 0 0 111 143" xml:space="preserve">
<g transform="matrix( 1, 0, 0, 1, -119,-107.55) ">
	<g>
		<g id="Layer2_0_FILL">
			<path fill="#214D63" d="M173.9,122.6c-5.5,0-10.1,2-14,6c-3.9,3.9-5.8,8.7-5.8,14.2c0,4.8,1.1,9.1,3.4,13.1
				c4.2,7.2,6.7,11.9,7.6,14c7.4,18.1,5.5,33.8-5.5,47c-4,4.8-8.9,8.8-14.5,11.8c-4.7,2.6-8.7,3.9-11.9,3.9h81.5
				c-3.2-0.1-7.2-1.4-11.9-3.9c-5.6-3-10.5-7-14.5-11.8c-11-13.2-12.8-28.9-5.4-47c0.9-2.1,3.4-6.8,7.6-14.1c2.3-4,3.4-8.4,3.4-13.2
				c0-5.5-1.9-10.2-5.8-14.1C184.2,124.5,179.5,122.5,173.9,122.6L173.9,122.6z"/>
		</g>
	</g>
</g>
</svg>
