<?xml version="1.0" encoding="utf-8"?>
<!-- Generator: Adobe Illustrator 19.2.1, SVG Export Plug-In . SVG Version: 6.00 Build 0)  -->
<!DOCTYPE svg PUBLIC "-//W3C//DTD SVG 1.1//EN" "http://www.w3.org/Graphics/SVG/1.1/DTD/svg11.dtd">
<svg version="1.1" id="Layer_1" xmlns="http://www.w3.org/2000/svg" xmlns:xlink="http://www.w3.org/1999/xlink" x="0px" y="0px"
	 width="144px" height="180px" viewBox="0 0 144 180" enable-background="new 0 0 144 180" xml:space="preserve">
<g transform="matrix( 1, 0, 0, 1, -1096.4,-644.75) ">
	<g>
		<g id="Layer2_0_MEMBER_0_FILL">
			<path fill="#214D63" d="M1174.1,772.9c-1.8-2.9-3.3-6.4-4.6-10.6c-0.9-2.8-1.7-4.3-2.5-4.3c-1.1,0-2.2,1.5-3.2,4.5
				c-1.7,4.5-3.4,8.1-5.1,10.8c-7.4,11.6-21.5,20.8-42.2,27.5h100C1195.2,793.6,1181.1,784.3,1174.1,772.9z"/>
		</g>
	</g>
</g>
<g transform="matrix( 1, 0, 0, 1, -227.85,-891) ">
	<g>
		<g id="Layer2_0_MEMBER_1_FILL">
			<path fill="#214D63" d="M277,929.3c0,5.6,2,10.4,5.9,14.4c4,4,8.8,6,14.4,6c5.6,0,10.4-2,14.4-6c4-4,5.9-8.8,5.9-14.4
				c0-5.6-2-10.4-5.9-14.4c-4-4-8.8-6-14.4-6c-5.6,0-10.4,2-14.4,6C279,918.9,277,923.7,277,929.3z"/>
		</g>
	</g>
</g>
</svg>
