<?xml version="1.0" encoding="utf-8"?>
<!-- Generator: Adobe Illustrator 19.2.1, SVG Export Plug-In . SVG Version: 6.00 Build 0)  -->
<!DOCTYPE svg PUBLIC "-//W3C//DTD SVG 1.1//EN" "http://www.w3.org/Graphics/SVG/1.1/DTD/svg11.dtd">
<svg version="1.1" id="Layer_1" xmlns="http://www.w3.org/2000/svg" xmlns:xlink="http://www.w3.org/1999/xlink" x="0px" y="0px"
	 width="55px" height="50px" viewBox="0 0 55 50" enable-background="new 0 0 55 50" xml:space="preserve">
<g transform="matrix( 1, 0, 0, 1, 0,0) ">
	<g>
		<g id="Layer2_0_FILL">
			<path fill="#214D63" d="M35.3,20.2c0-1.5-0.5-2.8-1.5-3.9s-2.3-1.6-3.8-1.6c-1.5,0-2.7,0.5-3.8,1.6c-1.1,1.1-1.6,2.4-1.6,3.9
				c0,1.1,0.3,2.4,1,3.9c0.4,0.8,0.9,2,1.7,3.4l2.2,5.1h0.1c0.5-1.3,1.4-2.9,2.8-5C34.4,24.6,35.3,22.1,35.3,20.2z"/>
		</g>
	</g>
</g>
</svg>
