
<svg xmlns="http://www.w3.org/2000/svg" version="1.1" xmlns:xlink="http://www.w3.org/1999/xlink" preserveAspectRatio="none" x="0px" y="0px" width="640px" height="480px" viewBox="0 0 640 480">
<defs>
<g id="Layer5_0_FILL">
<path fill="#FFFFFF" fill-opacity="0.03137254901960784" stroke="none" d="
M -7 -101.35
Q -7 -102.3 -7.65 -102.95 -8.3 -103.55 -9.25 -103.55 -10.15 -103.55 -10.8 -102.95 -11.4 -102.3 -11.4 -101.35 -11.4 -100.45 -10.8 -99.8 -10.15 -99.15 -9.25 -99.15 -8.3 -99.15 -7.65 -99.8 -7 -100.45 -7 -101.35 Z"/>
</g>

<g id="Layer4_0_FILL">
<path fill="#FFFFFF" fill-opacity="0.03137254901960784" stroke="none" d="
M 7.55 -115.65
Q 7.55 -116.3 7.1 -116.8 6.6 -117.25 5.95 -117.25 5.25 -117.25 4.8 -116.8 4.35 -116.3 4.35 -115.65 4.35 -115 4.8 -114.5 5.25 -114.05 5.95 -114.05 6.6 -114.05 7.1 -114.5 7.55 -115 7.55 -115.65 Z"/>
</g>

<g id="Layer3_0_FILL">
<path fill="#FFFFFF" fill-opacity="0.03137254901960784" stroke="none" d="
M 12.5 -89.75
Q 12.5 -91.4 11.3 -92.55 10.15 -93.75 8.45 -93.75 6.8 -93.75 5.65 -92.55 4.5 -91.4 4.5 -89.75 4.5 -88.05 5.65 -86.9 6.8 -85.75 8.45 -85.75 10.15 -85.75 11.3 -86.9 12.5 -88.05 12.5 -89.75 Z"/>
</g>

<g id="Layer2_0_FILL">
<path fill="#FFFFFF" fill-opacity="0.03137254901960784" stroke="none" d="
M 15.5 -37.35
Q 15.5 -38.3 14.85 -38.95 14.2 -39.55 13.25 -39.55 12.35 -39.55 11.7 -38.95 11.1 -38.3 11.1 -37.35 11.1 -36.45 11.7 -35.8 12.35 -35.15 13.25 -35.15 14.2 -35.15 14.85 -35.8 15.5 -36.45 15.5 -37.35 Z"/>
</g>

<g id="Layer1_0_FILL">
<path fill="#FFFFFF" fill-opacity="0.03137254901960784" stroke="none" d="
M -15 -33.25
Q -15 -34.9 -16.2 -36.05 -17.35 -37.25 -19.05 -37.25 -20.7 -37.25 -21.85 -36.05 -23 -34.9 -23 -33.25 -23 -31.55 -21.85 -30.4 -20.7 -29.25 -19.05 -29.25 -17.35 -29.25 -16.2 -30.4 -15 -31.55 -15 -33.25 Z"/>
</g>

<g id="Layer0_0_FILL">
<path fill="#FFFFFF" fill-opacity="0.03137254901960784" stroke="none" d="
M -6.15 -61.55
Q -7.35 -60.4 -7.35 -58.75 -7.35 -57.1 -6.15 -55.9 -5 -54.75 -3.35 -54.75 -1.7 -54.75 -0.5 -55.9 0.65 -57.1 0.65 -58.75 0.65 -60.4 -0.5 -61.55 -1.7 -62.75 -3.35 -62.75 -5 -62.75 -6.15 -61.55 Z"/>
</g>

<path id="Layer5_0_1_STROKES" stroke="#FFFFFF" stroke-opacity="0" stroke-width="3.5" stroke-linejoin="round" stroke-linecap="butt" fill="none" d="
M -7 -101.35
Q -7 -100.45 -7.65 -99.8 -8.3 -99.15 -9.25 -99.15 -10.15 -99.15 -10.8 -99.8 -11.4 -100.45 -11.4 -101.35 -11.4 -102.3 -10.8 -102.95 -10.15 -103.55 -9.25 -103.55 -8.3 -103.55 -7.65 -102.95 -7 -102.3 -7 -101.35 Z"/>

<path id="Layer4_0_1_STROKES" stroke="#FFFFFF" stroke-opacity="0" stroke-width="3.5" stroke-linejoin="round" stroke-linecap="butt" fill="none" d="
M 7.55 -115.65
Q 7.55 -115 7.1 -114.5 6.6 -114.05 5.95 -114.05 5.25 -114.05 4.8 -114.5 4.35 -115 4.35 -115.65 4.35 -116.3 4.8 -116.8 5.25 -117.25 5.95 -117.25 6.6 -117.25 7.1 -116.8 7.55 -116.3 7.55 -115.65 Z"/>

<path id="Layer3_0_1_STROKES" stroke="#FFFFFF" stroke-opacity="0" stroke-width="3.5" stroke-linejoin="round" stroke-linecap="butt" fill="none" d="
M 12.5 -89.75
Q 12.5 -88.05 11.3 -86.9 10.15 -85.75 8.45 -85.75 6.8 -85.75 5.65 -86.9 4.5 -88.05 4.5 -89.75 4.5 -91.4 5.65 -92.55 6.8 -93.75 8.45 -93.75 10.15 -93.75 11.3 -92.55 12.5 -91.4 12.5 -89.75 Z"/>

<path id="Layer2_0_1_STROKES" stroke="#FFFFFF" stroke-opacity="0" stroke-width="3.5" stroke-linejoin="round" stroke-linecap="butt" fill="none" d="
M 15.5 -37.35
Q 15.5 -36.45 14.85 -35.8 14.2 -35.15 13.25 -35.15 12.35 -35.15 11.7 -35.8 11.1 -36.45 11.1 -37.35 11.1 -38.3 11.7 -38.95 12.35 -39.55 13.25 -39.55 14.2 -39.55 14.85 -38.95 15.5 -38.3 15.5 -37.35 Z"/>

<path id="Layer1_0_1_STROKES" stroke="#FFFFFF" stroke-opacity="0" stroke-width="3.5" stroke-linejoin="round" stroke-linecap="butt" fill="none" d="
M -15 -33.25
Q -15 -31.55 -16.2 -30.4 -17.35 -29.25 -19.05 -29.25 -20.7 -29.25 -21.85 -30.4 -23 -31.55 -23 -33.25 -23 -34.9 -21.85 -36.05 -20.7 -37.25 -19.05 -37.25 -17.35 -37.25 -16.2 -36.05 -15 -34.9 -15 -33.25 Z"/>
</defs>

<g transform="matrix( 1, 0, 0, 1, 0,0) ">
<use xlink:href="#Layer5_0_FILL"/>

<use xlink:href="#Layer5_0_1_STROKES"/>
</g>

<g transform="matrix( 1, 0, 0, 1, 0,0) ">
<use xlink:href="#Layer4_0_FILL"/>

<use xlink:href="#Layer4_0_1_STROKES"/>
</g>

<g transform="matrix( 1, 0, 0, 1, 0,0) ">
<use xlink:href="#Layer3_0_FILL"/>

<use xlink:href="#Layer3_0_1_STROKES"/>
</g>

<g transform="matrix( 1, 0, 0, 1, 0,0) ">
<use xlink:href="#Layer2_0_FILL"/>

<use xlink:href="#Layer2_0_1_STROKES"/>
</g>

<g transform="matrix( 1, 0, 0, 1, 0,0) ">
<use xlink:href="#Layer1_0_FILL"/>

<use xlink:href="#Layer1_0_1_STROKES"/>
</g>

<g transform="matrix( 1, 0, 0, 1, 0,0) ">
<use xlink:href="#Layer0_0_FILL"/>
</g>
</svg>
