
<svg xmlns="http://www.w3.org/2000/svg" version="1.1" xmlns:xlink="http://www.w3.org/1999/xlink" preserveAspectRatio="none" x="0px" y="0px" width="640px" height="480px" viewBox="0 0 640 480">
<defs>
<g id="Layer5_0_FILL">
<path fill="#FFFFFF" fill-opacity="0.6588235294117647" stroke="none" d="
M 8.1 -67.95
Q 7.35 -67.2 7.35 -66.1 7.35 -65 8.1 -64.2 8.85 -63.45 9.95 -63.45 11.05 -63.45 11.8 -64.2 12.6 -65 12.6 -66.1 12.6 -67.2 11.8 -67.95 11.05 -68.7 9.95 -68.7 8.85 -68.7 8.1 -67.95 Z"/>
</g>

<g id="Layer4_0_FILL">
<path fill="#FFFFFF" fill-opacity="0.6588235294117647" stroke="none" d="
M -7.05 -84.1
Q -7.85 -83.3 -7.85 -82.15 -7.85 -81 -7.05 -80.15 -6.2 -79.35 -5.05 -79.35 -3.9 -79.35 -3.1 -80.15 -2.25 -81 -2.25 -82.15 -2.25 -83.3 -3.1 -84.1 -3.9 -84.95 -5.05 -84.95 -6.2 -84.95 -7.05 -84.1 Z"/>
</g>

<g id="Layer3_0_FILL">
<path fill="#FFFFFF" fill-opacity="0.6588235294117647" stroke="none" d="
M -13.2 -58
Q -14 -57.2 -14 -56.05 -14 -54.9 -13.2 -54.05 -12.35 -53.25 -11.2 -53.25 -10.05 -53.25 -9.25 -54.05 -8.4 -54.9 -8.4 -56.05 -8.4 -57.2 -9.25 -58 -10.05 -58.85 -11.2 -58.85 -12.35 -58.85 -13.2 -58 Z"/>
</g>

<g id="Layer2_0_FILL">
<path fill="#FFFFFF" fill-opacity="0.6588235294117647" stroke="none" d="
M 22.6 -3.95
Q 21.85 -3.2 21.85 -2.1 21.85 -1 22.6 -0.2 23.35 0.55 24.45 0.55 25.55 0.55 26.3 -0.2 27.1 -1 27.1 -2.1 27.1 -3.2 26.3 -3.95 25.55 -4.7 24.45 -4.7 23.35 -4.7 22.6 -3.95 Z"/>
</g>

<g id="Layer1_0_FILL">
<path fill="#FFFFFF" fill-opacity="0.6588235294117647" stroke="none" d="
M -22.7 -2.35
Q -23.85 -2.35 -24.7 -1.5 -25.5 -0.7 -25.5 0.45 -25.5 1.6 -24.7 2.45 -23.85 3.25 -22.7 3.25 -21.55 3.25 -20.75 2.45 -19.9 1.6 -19.9 0.45 -19.9 -0.7 -20.75 -1.5 -21.55 -2.35 -22.7 -2.35 Z"/>
</g>

<g id="Layer0_0_FILL">
<path fill="#214D63" fill-opacity="0.25882352941176473" stroke="none" d="
M 12.65 -28.8
Q 12.65 -32.9 9.95 -35.85 7.2 -38.75 3.25 -38.75 -0.65 -38.75 -3.4 -35.85 -6.15 -32.9 -6.15 -28.8 -6.15 -24.7 -3.4 -21.75 -0.65 -18.85 3.25 -18.85 7.2 -18.85 9.95 -21.75 12.65 -24.7 12.65 -28.8 Z"/>
</g>

<path id="Layer0_0_1_STROKES" stroke="#FFFFFF" stroke-opacity="0.6392156862745098" stroke-width="7.2" stroke-linejoin="round" stroke-linecap="butt" fill="none" d="
M -6.15 -28.8
Q -6.15 -32.9 -3.4 -35.85 -0.65 -38.75 3.25 -38.75 7.2 -38.75 9.95 -35.85 12.65 -32.9 12.65 -28.8 12.65 -24.7 9.95 -21.75 7.2 -18.85 3.25 -18.85 -0.65 -18.85 -3.4 -21.75 -6.15 -24.7 -6.15 -28.8 Z"/>
</defs>

<g transform="matrix( 1, 0, 0, 1, 0,0) ">
<use xlink:href="#Layer5_0_FILL"/>
</g>

<g transform="matrix( 1, 0, 0, 1, 0,0) ">
<use xlink:href="#Layer4_0_FILL"/>
</g>

<g transform="matrix( 1, 0, 0, 1, 0,0) ">
<use xlink:href="#Layer3_0_FILL"/>
</g>

<g transform="matrix( 1, 0, 0, 1, 0,0) ">
<use xlink:href="#Layer2_0_FILL"/>
</g>

<g transform="matrix( 1, 0, 0, 1, 0,0) ">
<use xlink:href="#Layer1_0_FILL"/>
</g>

<g transform="matrix( 1, 0, 0, 1, 0,0) ">
<use xlink:href="#Layer0_0_FILL"/>

<use xlink:href="#Layer0_0_1_STROKES"/>
</g>
</svg>
