
<svg xmlns="http://www.w3.org/2000/svg" version="1.1" xmlns:xlink="http://www.w3.org/1999/xlink" preserveAspectRatio="none" x="0px" y="0px" width="640px" height="480px" viewBox="0 0 640 480">
<defs>
<g id="Layer5_0_FILL">
<path fill="#FFFFFF" fill-opacity="0.5803921568627451" stroke="none" d="
M 7.85 -61.8
Q 7.15 -61 7.15 -59.95 7.15 -58.85 7.85 -58.05 8.65 -57.3 9.75 -57.3 10.85 -57.3 11.6 -58.05 12.4 -58.85 12.4 -59.95 12.4 -61 11.6 -61.8 10.85 -62.55 9.75 -62.55 8.65 -62.55 7.85 -61.8 Z"/>
</g>

<g id="Layer4_0_FILL">
<path fill="#FFFFFF" fill-opacity="0.5803921568627451" stroke="none" d="
M -4.35 -77.7
Q -5.05 -76.95 -5.05 -76 -5.05 -75 -4.35 -74.3 -3.65 -73.6 -2.65 -73.6 -1.65 -73.6 -0.95 -74.3 -0.25 -75 -0.25 -76 -0.25 -76.95 -0.95 -77.7 -1.65 -78.4 -2.65 -78.4 -3.65 -78.4 -4.35 -77.7 Z"/>
</g>

<g id="Layer3_0_FILL">
<path fill="#FFFFFF" fill-opacity="0.5803921568627451" stroke="none" d="
M -13.05 -54
Q -13.75 -53.25 -13.75 -52.3 -13.75 -51.3 -13.05 -50.6 -12.35 -49.9 -11.35 -49.9 -10.35 -49.9 -9.65 -50.6 -8.95 -51.3 -8.95 -52.3 -8.95 -53.25 -9.65 -54 -10.35 -54.7 -11.35 -54.7 -12.35 -54.7 -13.05 -54 Z"/>
</g>

<g id="Layer2_0_FILL">
<path fill="#FFFFFF" fill-opacity="0.5803921568627451" stroke="none" d="
M 22.35 2.2
Q 21.65 3 21.65 4.05 21.65 5.15 22.35 5.95 23.15 6.7 24.25 6.7 25.35 6.7 26.1 5.95 26.9 5.15 26.9 4.05 26.9 3 26.1 2.2 25.35 1.45 24.25 1.45 23.15 1.45 22.35 2.2 Z"/>
</g>

<g id="Layer1_0_FILL">
<path fill="#FFFFFF" fill-opacity="0.5803921568627451" stroke="none" d="
M -24.55 2.5
Q -25.25 3.25 -25.25 4.2 -25.25 5.2 -24.55 5.9 -23.85 6.6 -22.85 6.6 -21.85 6.6 -21.15 5.9 -20.45 5.2 -20.45 4.2 -20.45 3.25 -21.15 2.5 -21.85 1.8 -22.85 1.8 -23.85 1.8 -24.55 2.5 Z"/>
</g>

<g id="Layer0_0_FILL">
<path fill="#214D63" fill-opacity="0.43529411764705883" stroke="none" d="
M 15.35 -22.9
Q 15.35 -28.75 11.5 -32.9 7.65 -37 2.15 -37 -3.35 -37 -7.2 -32.9 -11.05 -28.75 -11.05 -22.9 -11.05 -17.1 -7.2 -12.95 -3.35 -8.85 2.15 -8.85 7.65 -8.85 11.5 -12.95 15.35 -17.1 15.35 -22.9 Z"/>
</g>

<path id="Layer0_0_1_STROKES" stroke="#FFFFFF" stroke-opacity="0.7333333333333333" stroke-width="6.6" stroke-linejoin="round" stroke-linecap="butt" fill="none" d="
M -11.05 -22.9
Q -11.05 -28.75 -7.2 -32.9 -3.35 -37 2.15 -37 7.65 -37 11.5 -32.9 15.35 -28.75 15.35 -22.9 15.35 -17.1 11.5 -12.95 7.65 -8.85 2.15 -8.85 -3.35 -8.85 -7.2 -12.95 -11.05 -17.1 -11.05 -22.9 Z"/>
</defs>

<g transform="matrix( 1, 0, 0, 1, 0,0) ">
<use xlink:href="#Layer5_0_FILL"/>
</g>

<g transform="matrix( 1, 0, 0, 1, 0,0) ">
<use xlink:href="#Layer4_0_FILL"/>
</g>

<g transform="matrix( 1, 0, 0, 1, 0,0) ">
<use xlink:href="#Layer3_0_FILL"/>
</g>

<g transform="matrix( 1, 0, 0, 1, 0,0) ">
<use xlink:href="#Layer2_0_FILL"/>
</g>

<g transform="matrix( 1, 0, 0, 1, 0,0) ">
<use xlink:href="#Layer1_0_FILL"/>
</g>

<g transform="matrix( 1, 0, 0, 1, 0,0) ">
<use xlink:href="#Layer0_0_FILL"/>

<use xlink:href="#Layer0_0_1_STROKES"/>
</g>
</svg>
