
<svg xmlns="http://www.w3.org/2000/svg" version="1.1" xmlns:xlink="http://www.w3.org/1999/xlink" preserveAspectRatio="none" x="0px" y="0px" width="640px" height="480px" viewBox="0 0 640 480">
<defs>
<g id="Layer5_0_FILL">
<path fill="#FFFFFF" fill-opacity="0.8980392156862745" stroke="none" d="
M 12.85 -78.5
Q 12.85 -79.5 12.1 -80.25 11.4 -81 10.35 -81 9.3 -81 8.55 -80.25 7.85 -79.5 7.85 -78.5 7.85 -77.45 8.55 -76.7 9.3 -76 10.35 -76 11.4 -76 12.1 -76.7 12.85 -77.45 12.85 -78.5 Z"/>
</g>

<g id="Layer4_0_FILL">
<path fill="#FFFFFF" fill-opacity="0.8980392156862745" stroke="none" d="
M -5.85 -94.6
Q -5.85 -96.25 -7.05 -97.4 -8.2 -98.6 -9.9 -98.6 -11.55 -98.6 -12.7 -97.4 -13.85 -96.25 -13.85 -94.6 -13.85 -92.9 -12.7 -91.75 -11.55 -90.6 -9.9 -90.6 -8.2 -90.6 -7.05 -91.75 -5.85 -92.9 -5.85 -94.6 Z"/>
</g>

<g id="Layer3_0_FILL">
<path fill="#FFFFFF" fill-opacity="0.8980392156862745" stroke="none" d="
M -6.9 -63.6
Q -6.9 -65.25 -8.1 -66.4 -9.25 -67.6 -10.95 -67.6 -12.6 -67.6 -13.75 -66.4 -14.9 -65.25 -14.9 -63.6 -14.9 -61.9 -13.75 -60.75 -12.6 -59.6 -10.95 -59.6 -9.25 -59.6 -8.1 -60.75 -6.9 -61.9 -6.9 -63.6 Z"/>
</g>

<g id="Layer2_0_FILL">
<path fill="#FFFFFF" fill-opacity="0.8980392156862745" stroke="none" d="
M 27.35 -14.5
Q 27.35 -15.5 26.6 -16.25 25.9 -17 24.85 -17 23.8 -17 23.05 -16.25 22.35 -15.5 22.35 -14.5 22.35 -13.45 23.05 -12.7 23.8 -12 24.85 -12 25.9 -12 26.6 -12.7 27.35 -13.45 27.35 -14.5 Z"/>
</g>

<g id="Layer1_0_FILL">
<path fill="#FFFFFF" fill-opacity="0.8980392156862745" stroke="none" d="
M -18.4 -7.1
Q -18.4 -8.75 -19.6 -9.9 -20.75 -11.1 -22.45 -11.1 -24.1 -11.1 -25.25 -9.9 -26.4 -8.75 -26.4 -7.1 -26.4 -5.4 -25.25 -4.25 -24.1 -3.1 -22.45 -3.1 -20.75 -3.1 -19.6 -4.25 -18.4 -5.4 -18.4 -7.1 Z"/>
</g>

<g id="Layer0_0_FILL">
<path fill="#214D63" fill-opacity="0.054901960784313725" stroke="none" d="
M 1.8 -44.4
Q 0.3 -42.85 0.3 -40.7 0.3 -38.55 1.8 -37 3.3 -35.5 5.4 -35.5 7.55 -35.5 9.05 -37 10.5 -38.55 10.5 -40.7 10.5 -42.85 9.05 -44.4 7.55 -45.9 5.4 -45.9 3.3 -45.9 1.8 -44.4 Z"/>
</g>

<path id="Layer0_0_1_STROKES" stroke="#FFFFFF" stroke-opacity="0.5294117647058824" stroke-width="7.8" stroke-linejoin="round" stroke-linecap="butt" fill="none" d="
M 0.3 -40.7
Q 0.3 -42.85 1.8 -44.4 3.3 -45.9 5.4 -45.9 7.55 -45.9 9.05 -44.4 10.5 -42.85 10.5 -40.7 10.5 -38.55 9.05 -37 7.55 -35.5 5.4 -35.5 3.3 -35.5 1.8 -37 0.3 -38.55 0.3 -40.7 Z"/>
</defs>

<g transform="matrix( 1, 0, 0, 1, 0,0) ">
<use xlink:href="#Layer5_0_FILL"/>
</g>

<g transform="matrix( 1, 0, 0, 1, 0,0) ">
<use xlink:href="#Layer4_0_FILL"/>
</g>

<g transform="matrix( 1, 0, 0, 1, 0,0) ">
<use xlink:href="#Layer3_0_FILL"/>
</g>

<g transform="matrix( 1, 0, 0, 1, 0,0) ">
<use xlink:href="#Layer2_0_FILL"/>
</g>

<g transform="matrix( 1, 0, 0, 1, 0,0) ">
<use xlink:href="#Layer1_0_FILL"/>
</g>

<g transform="matrix( 1, 0, 0, 1, 0,0) ">
<use xlink:href="#Layer0_0_FILL"/>

<use xlink:href="#Layer0_0_1_STROKES"/>
</g>
</svg>
