
<svg xmlns="http://www.w3.org/2000/svg" version="1.1" xmlns:xlink="http://www.w3.org/1999/xlink" preserveAspectRatio="none" x="0px" y="0px" width="640px" height="480px" viewBox="0 0 640 480">
<defs>
<g id="Layer0_0_FILL">
<path fill="#214D63" fill-opacity="0.9490196078431372" stroke="none" d="
M 24 -11
Q 24 -21.75 16.95 -29.35 9.95 -36.95 0 -36.95 -9.95 -36.95 -17 -29.35 -24 -21.75 -24 -11 -24 -0.3 -17 7.3 -9.95 14.9 0 14.9 9.95 14.9 16.95 7.3 24 -0.3 24 -11 Z"/>
</g>

<path id="Layer0_0_1_STROKES" stroke="#FFFFFF" stroke-width="5" stroke-linejoin="round" stroke-linecap="butt" fill="none" d="
M 16.95 -29.35
Q 24 -21.75 24 -11 24 -0.3 16.95 7.3 9.95 14.9 0 14.9 -9.95 14.9 -17 7.3 -24 -0.3 -24 -11 -24 -21.75 -17 -29.35 -9.95 -36.95 0 -36.95 9.95 -36.95 16.95 -29.35 Z"/>
</defs>

<g transform="matrix( 1, 0, 0, 1, 0,0) ">
<use xlink:href="#Layer0_0_FILL"/>

<use xlink:href="#Layer0_0_1_STROKES"/>
</g>
</svg>
