
<svg xmlns="http://www.w3.org/2000/svg" version="1.1" xmlns:xlink="http://www.w3.org/1999/xlink" preserveAspectRatio="none" x="0px" y="0px" width="640px" height="480px" viewBox="0 0 640 480">
<defs>
<g id="Layer5_0_FILL">
<path fill="#FFFFFF" fill-opacity="0.7411764705882353" stroke="none" d="
M 8.4 -74.1
Q 7.7 -73.35 7.7 -72.3 7.7 -71.25 8.4 -70.55 9.15 -69.8 10.15 -69.8 11.25 -69.8 12 -70.55 12.7 -71.25 12.7 -72.3 12.7 -73.35 12 -74.1 11.25 -74.8 10.15 -74.8 9.15 -74.8 8.4 -74.1 Z"/>
</g>

<g id="Layer4_0_FILL">
<path fill="#FFFFFF" fill-opacity="0.7411764705882353" stroke="none" d="
M -9.7 -90.65
Q -10.6 -89.65 -10.6 -88.35 -10.6 -87 -9.7 -86.1 -8.75 -85.15 -7.45 -85.15 -6.1 -85.15 -5.1 -86.1 -4.2 -87 -4.2 -88.35 -4.2 -89.65 -5.1 -90.65 -6.1 -91.55 -7.45 -91.55 -8.75 -91.55 -9.7 -90.65 Z"/>
</g>

<g id="Layer3_0_FILL">
<path fill="#FFFFFF" fill-opacity="0.7411764705882353" stroke="none" d="
M -13.3 -62.1
Q -14.2 -61.1 -14.2 -59.8 -14.2 -58.45 -13.3 -57.55 -12.35 -56.6 -11.05 -56.6 -9.7 -56.6 -8.7 -57.55 -7.8 -58.45 -7.8 -59.8 -7.8 -61.1 -8.7 -62.1 -9.7 -63 -11.05 -63 -12.35 -63 -13.3 -62.1 Z"/>
</g>

<g id="Layer2_0_FILL">
<path fill="#FFFFFF" fill-opacity="0.7411764705882353" stroke="none" d="
M 22.85 -10.1
Q 22.15 -9.35 22.15 -8.3 22.15 -7.25 22.85 -6.55 23.6 -5.8 24.6 -5.8 25.7 -5.8 26.45 -6.55 27.15 -7.25 27.15 -8.3 27.15 -9.35 26.45 -10.1 25.7 -10.8 24.6 -10.8 23.6 -10.8 22.85 -10.1 Z"/>
</g>

<g id="Layer1_0_FILL">
<path fill="#FFFFFF" fill-opacity="0.7411764705882353" stroke="none" d="
M -24.8 -5.6
Q -25.7 -4.6 -25.7 -3.3 -25.7 -1.95 -24.8 -1.05 -23.85 -0.1 -22.55 -0.1 -21.2 -0.1 -20.2 -1.05 -19.3 -1.95 -19.3 -3.3 -19.3 -4.6 -20.2 -5.6 -21.2 -6.5 -22.55 -6.5 -23.85 -6.5 -24.8 -5.6 Z"/>
</g>

<g id="Layer0_0_FILL">
<path fill="#214D63" fill-opacity="0.12941176470588237" stroke="none" d="
M 11.05 -34.75
Q 11.05 -37.65 9.1 -39.7 7.2 -41.7 4.35 -41.7 1.55 -41.7 -0.4 -39.7 -2.35 -37.65 -2.35 -34.75 -2.35 -31.85 -0.4 -29.8 1.55 -27.8 4.35 -27.8 7.2 -27.8 9.1 -29.8 11.05 -31.85 11.05 -34.75 Z"/>
</g>

<path id="Layer0_0_1_STROKES" stroke="#FFFFFF" stroke-opacity="0.5725490196078431" stroke-width="7.6" stroke-linejoin="round" stroke-linecap="butt" fill="none" d="
M -2.35 -34.75
Q -2.35 -37.65 -0.4 -39.7 1.55 -41.7 4.35 -41.7 7.2 -41.7 9.1 -39.7 11.05 -37.65 11.05 -34.75 11.05 -31.85 9.1 -29.8 7.2 -27.8 4.35 -27.8 1.55 -27.8 -0.4 -29.8 -2.35 -31.85 -2.35 -34.75 Z"/>
</defs>

<g transform="matrix( 1, 0, 0, 1, 0,0) ">
<use xlink:href="#Layer5_0_FILL"/>
</g>

<g transform="matrix( 1, 0, 0, 1, 0,0) ">
<use xlink:href="#Layer4_0_FILL"/>
</g>

<g transform="matrix( 1, 0, 0, 1, 0,0) ">
<use xlink:href="#Layer3_0_FILL"/>
</g>

<g transform="matrix( 1, 0, 0, 1, 0,0) ">
<use xlink:href="#Layer2_0_FILL"/>
</g>

<g transform="matrix( 1, 0, 0, 1, 0,0) ">
<use xlink:href="#Layer1_0_FILL"/>
</g>

<g transform="matrix( 1, 0, 0, 1, 0,0) ">
<use xlink:href="#Layer0_0_FILL"/>

<use xlink:href="#Layer0_0_1_STROKES"/>
</g>
</svg>
