<?xml version="1.0" encoding="utf-8"?>
<!-- Generator: Adobe Illustrator 19.2.1, SVG Export Plug-In . SVG Version: 6.00 Build 0)  -->
<!DOCTYPE svg PUBLIC "-//W3C//DTD SVG 1.1//EN" "http://www.w3.org/Graphics/SVG/1.1/DTD/svg11.dtd">
<svg version="1.1" id="Layer_1" xmlns="http://www.w3.org/2000/svg" xmlns:xlink="http://www.w3.org/1999/xlink" x="0px" y="0px"
	 width="127px" height="158px" viewBox="0 0 127 158" enable-background="new 0 0 127 158" xml:space="preserve">
<g transform="matrix( 1, 0, 0, 1, 0,0) ">
	<g>
		<g id="Layer2_0_FILL">
			<path fill="#214D63" d="M79.3,35.3c0-5.6-2-10.4-5.9-14.4c-4-4-8.8-6-14.4-6c-5.6,0-10.4,2-14.4,6c-4,4-5.9,8.8-5.9,14.4
				c0,5.6,2,10.4,5.9,14.4c4,4,8.8,6,14.4,6c5.6,0,10.4-2,14.4-6C77.4,45.7,79.3,40.9,79.3,35.3z"/>
		</g>
	</g>
</g>
<g transform="matrix( 1, 0, 0, 1, -1235.05,-644.75) ">
	<g>
		<g id="Layer2_1_MEMBER_0_FILL">
			<path fill="#214D63" d="M1296.9,753.3c-0.9-1.5-1.9-2.2-3-2.2c-1.1,0-2.2,0.8-3.2,2.4c-1.7,2.7-3.3,4.8-4.8,6.3
				c-7.3,7.3-21.2,14.3-41.8,21h100c-20.9-7-35-14.1-42.3-21.3C1300.2,757.9,1298.6,755.9,1296.9,753.3z"/>
		</g>
	</g>
</g>
</svg>
