<?xml version="1.0" encoding="utf-8"?>
<!-- Generator: Adobe Illustrator 19.2.1, SVG Export Plug-In . SVG Version: 6.00 Build 0)  -->
<!DOCTYPE svg PUBLIC "-//W3C//DTD SVG 1.1//EN" "http://www.w3.org/Graphics/SVG/1.1/DTD/svg11.dtd">
<svg version="1.1" id="Layer_1" xmlns="http://www.w3.org/2000/svg" xmlns:xlink="http://www.w3.org/1999/xlink" x="0px" y="0px"
	 width="87px" height="127px" viewBox="0 0 87 127" enable-background="new 0 0 87 127" xml:space="preserve">
<g transform="matrix( 1, 0, 0, 1, -790.8,-644.75) ">
	<g>
		<g id="Layer2_0_FILL">
			<path fill="#214D63" d="M833.8,656.8L833.8,656.8c-5.6,0-10.2,2-14.1,5.9c-3.9,3.9-5.8,8.6-5.8,14.1c0,4.7,1.5,9.6,4.6,14.9
				c3.7,6.4,5.8,10.5,6.3,12.3c2.6,9.7,1.4,20.4-3.7,32.1c-2.5,5.9-5.3,10.8-8.4,14.7h42.1c-3-3.9-5.8-8.8-8.3-14.7
				c-5.1-11.7-6.3-22.3-3.8-32c0.5-1.8,2.6-5.9,6.4-12.3c3.1-5.3,4.6-10.2,4.6-14.9c0-5.5-2-10.2-5.8-14.1
				C844,658.8,839.3,656.8,833.8,656.8z"/>
		</g>
	</g>
</g>
</svg>
