
<svg xmlns="http://www.w3.org/2000/svg" version="1.1" xmlns:xlink="http://www.w3.org/1999/xlink" preserveAspectRatio="none" x="0px" y="0px" width="640px" height="480px" viewBox="0 0 640 480">
<defs>
<g id="Layer6_0_MEMBER_0_FILL">
<path fill="#FFFFFF" stroke="none" d="
M 135.15 114.6
Q 131.2 124.9 125.7 132.7 114.2 149.05 86.2 165.6 73.1 173.3 70.35 185.9 67.75 197.65 75.05 207.95 81.95 217.6 93.25 220 104.2 222.35 115.6 217.15 147.35 202.8 148.05 148.75 148.45 121.3 141.85 92.3 138.3 106.35 135.15 114.6 Z"/>
</g>

<g id="Layer6_0_MEMBER_1_FILL">
<path fill="#FFFFFF" stroke="none" d="
M 185.6 165.6
Q 173.6 155.6 165.9 145.75 151.3 127.1 141.85 92.3 139.45 103.75 137.55 116.8 133.8 142.45 134.25 164.4 135.55 233.55 176.55 251.8 191.1 258.25 204.85 255.4 219.15 252.45 227.85 240.35 236.9 227.7 233.3 212.8 229.6 197.45 214 186.7 195.95 174.3 185.6 165.6 Z"/>
</g>

<g id="Layer6_0_MEMBER_2_FILL">
<path fill="#214D63" stroke="none" d="
M 368.95 9.95
Q 363.85 32.35 353.25 47.35 341.6 63.9 319.95 76.7 310.05 82.55 307.95 92.05 305.95 100.95 311.5 108.75 316.7 116.1 325.25 117.9 333.5 119.65 342.2 115.7 366.25 104.85 370.2 58.35 372.3 33.45 368.95 9.95 Z"/>
</g>

<g id="Layer6_0_MEMBER_3_FILL">
<path fill="#214D63" stroke="none" d="
M 369.05 9.1
Q 364.55 40 367.15 72.65 372.1 133.85 403.65 148.3 415 153.5 425.95 151.25 437.2 148.9 444.05 139.3 451.15 129.35 448.35 117.65 445.4 105.6 433.15 97.1 404.35 77.15 389.8 57.15 375.35 37.3 369.05 9.1 Z"/>
</g>

<g id="Layer6_0_MEMBER_4_FILL">
<path fill="#FFFFFF" stroke="none" d="
M 137.45 223.45
Q 132.45 218.45 125.4 218.45 118.35 218.45 113.4 223.45 108.4 228.4 108.4 235.45 108.4 242.45 113.4 247.45 118.35 252.45 125.4 252.45 132.45 252.45 137.45 247.45 142.4 242.45 142.4 235.45 142.4 228.4 137.45 223.45 Z"/>
</g>

<g id="Layer6_0_MEMBER_5_FILL">
<path fill="#214D63" stroke="none" d="
M 359.45 146.6
Q 356.6 143.75 352.6 143.75 348.6 143.75 345.75 146.6 342.95 149.45 342.95 153.45 342.95 157.45 345.75 160.25 348.6 163.1 352.6 163.1 356.6 163.1 359.45 160.25 362.25 157.45 362.25 153.45 362.25 149.45 359.45 146.6 Z"/>
</g>
</defs>

<g transform="matrix( 0.5, 0, 0, 0.5, -71,-75) ">
<use xlink:href="#Layer6_0_MEMBER_0_FILL"/>
</g>

<g transform="matrix( 0.5, 0, 0, 0.5, -71,-75) ">
<use xlink:href="#Layer6_0_MEMBER_1_FILL"/>
</g>

<g transform="matrix( 0.5, 0, 0, 0.5, -184.6,-28.5) ">
<use xlink:href="#Layer6_0_MEMBER_2_FILL"/>
</g>

<g transform="matrix( 0.5, 0, 0, 0.5, -184.6,-28.5) ">
<use xlink:href="#Layer6_0_MEMBER_3_FILL"/>
</g>

<g transform="matrix( 0.5, 0, 0, 0.5, -71,-75) ">
<use xlink:href="#Layer6_0_MEMBER_4_FILL"/>
</g>

<g transform="matrix( 0.5, 0, 0, 0.5, -184.6,-34) ">
<use xlink:href="#Layer6_0_MEMBER_5_FILL"/>
</g>
</svg>
