<?xml version="1.0" encoding="utf-8"?>
<!-- Generator: Adobe Illustrator 19.2.1, SVG Export Plug-In . SVG Version: 6.00 Build 0)  -->
<!DOCTYPE svg PUBLIC "-//W3C//DTD SVG 1.1//EN" "http://www.w3.org/Graphics/SVG/1.1/DTD/svg11.dtd">
<svg version="1.1" id="Layer_1" xmlns="http://www.w3.org/2000/svg" xmlns:xlink="http://www.w3.org/1999/xlink" x="0px" y="0px"
	 width="792px" height="612px" viewBox="0 0 792 612" enable-background="new 0 0 792 612" xml:space="preserve">
<g>
	<g id="_buttons_btn_play_shape_0_Layer0_1_FILL_1_">
		<path fill="#CA4827" d="M152.5,19.2c0-3.3-1.7-5-5-5h-9.6H20.5c-3.3,0-5,1.7-5,5v38c0,3.3,1.7,5,5,5h117.4h9.6c3.3,0,5-1.7,5-5
			V19.2z"/>
	</g>
</g>
<g transform="matrix( 1, 0, 0, 1, 0,0) ">
	<g>
		<g id="_buttons_btn_play_shape_0_Layer0_0_FILL_5_">
			<path fill="#F16A3C" d="M152.5,17.2c0-3.3-1.7-5-5-5h-9.6H20.5c-3.3,0-5,1.7-5,5v38c0,3.3,1.7,5,5,5h117.4h9.6c3.3,0,5-1.7,5-5
				V17.2z"/>
		</g>
	</g>
</g>
<g transform="matrix( 1, 0, 0, 1, 0,0) ">
	<g>
		<g id="_buttons_btn_play_shape_0_Layer0_1_FILL_5_">
			<path fill="#F16A3C" d="M152.5,17.2c0-3.3-1.7-5-5-5h-127c-3.3,0-5,1.7-5,5v38c0,3.3,1.7,5,5,5h117.4h9.6c3.3,0,5-1.7,5-5V17.2z"
				/>
		</g>
	</g>
</g>
<g transform="matrix( 1, 0, 0, 1, 0,0) ">
	<g>
		<g id="Layer0_0_FILL">
			<path fill="#FFFFFF" d="M105.5,31.2v4h-6v4h6v4l7-6L105.5,31.2z"/>
		</g>
	</g>
</g>
<rect x="45.5" y="24.2" fill="none" width="52" height="26"/>
<g enable-background="new    ">
	<path fill="#FFFFFF" d="M56.1,30.4h4.6c2.3,0,4,1.6,4,4c0,2.4-1.7,4-4,4h-2.9v4.7h-1.8V30.4z M60.4,36.8c1.5,0,2.5-1,2.5-2.5
		s-0.9-2.4-2.4-2.4h-2.6v4.9H60.4z"/>
	<path fill="#FFFFFF" d="M66.5,30.4h1.7v9.9c0,1.1,0.4,1.3,1,1.3c0.2,0,0.3,0,0.3,0v1.5c0,0-0.3,0-0.6,0c-1,0-2.4-0.3-2.4-2.6V30.4z
		"/>
	<path fill="#FFFFFF" d="M76.1,37.4h0.4v-0.2c0-1.5-0.8-2-2-2c-1.4,0-2.5,0.9-2.5,0.9l-0.7-1.3c0,0,1.3-1.1,3.4-1.1
		c2.3,0,3.6,1.3,3.6,3.6v5.8h-1.6v-0.9c0-0.4,0-0.7,0-0.7h0c0,0-0.7,1.8-2.9,1.8c-1.6,0-3.1-1-3.1-2.8
		C70.6,37.5,74.6,37.4,76.1,37.4z M74.1,41.9c1.5,0,2.4-1.5,2.4-2.9v-0.3h-0.5c-1.3,0-3.7,0.1-3.7,1.7C72.4,41.2,73,41.9,74.1,41.9z
		"/>
	<path fill="#FFFFFF" d="M80.2,45c0,0,0.5,0.4,1.1,0.4c0.7,0,1.3-0.5,1.6-1.3l0.5-1l-3.8-9h2l2.3,6c0.2,0.5,0.3,1.1,0.3,1.1h0
		c0,0,0.1-0.6,0.3-1.1l2.2-6h1.9l-4.3,10.7c-0.6,1.4-1.7,2.1-3,2.1c-1,0-1.8-0.6-1.8-0.6L80.2,45z"/>
</g>
<g>
</g>
<g>
</g>
<g>
</g>
<g>
</g>
<g>
</g>
<g>
</g>
</svg>
