<?xml version="1.0" encoding="utf-8"?>
<!-- Generator: Adobe Illustrator 19.2.1, SVG Export Plug-In . SVG Version: 6.00 Build 0)  -->
<!DOCTYPE svg PUBLIC "-//W3C//DTD SVG 1.1//EN" "http://www.w3.org/Graphics/SVG/1.1/DTD/svg11.dtd">
<svg version="1.1" id="Layer_1" xmlns="http://www.w3.org/2000/svg" xmlns:xlink="http://www.w3.org/1999/xlink" x="0px" y="0px"
	 width="640px" height="480px" viewBox="0 0 640 480" style="enable-background:new 0 0 640 480;" xml:space="preserve">
<style type="text/css">
	.st0{fill:none;stroke:#FDB813;stroke-width:8.25;stroke-miterlimit:10;}
</style>
<path id="Raindrops_graphics_FlashAICB_Assets_Layer_1_sun_glow_0_Layer0_0_1_STROKES" class="st0" d="M69.6,38.9
	C71.2,42.8,72,46.8,72,51s-0.8,8.2-2.4,12.1c-1.6,3.7-3.8,7-6.7,9.9c-2.9,2.9-6.1,5.1-9.9,6.7C49.2,81.2,45.2,82,41,82
	s-8.2-0.8-12.1-2.4c-3.7-1.6-7-3.8-9.8-6.7c-2.9-2.9-5.1-6.1-6.7-9.9C10.8,59.2,10,55.2,10,51s0.8-8.2,2.4-12.1
	c1.6-3.7,3.8-7,6.7-9.8c2.9-2.9,6.1-5.1,9.8-6.7C32.8,20.8,36.8,20,41,20s8.2,0.8,12.1,2.4c3.7,1.6,7,3.8,9.9,6.7
	C65.8,31.9,68,35.2,69.6,38.9z"/>
</svg>
