<?xml version="1.0" encoding="utf-8"?>
<!-- Generator: Adobe Illustrator 19.2.1, SVG Export Plug-In . SVG Version: 6.00 Build 0)  -->
<!DOCTYPE svg PUBLIC "-//W3C//DTD SVG 1.1//EN" "http://www.w3.org/Graphics/SVG/1.1/DTD/svg11.dtd">
<svg version="1.1" id="Layer_1" xmlns="http://www.w3.org/2000/svg" xmlns:xlink="http://www.w3.org/1999/xlink" x="0px" y="0px"
	 width="640px" height="480px" viewBox="0 0 640 480" style="enable-background:new 0 0 640 480;" xml:space="preserve">
<style type="text/css">
	.st0{fill:#EAC704;}
	.st1{fill:#E0AA17;}
</style>
<path class="st0" d="M73.5,48.5c0-9-3.2-16.6-9.5-23C57.6,19.2,50,16,41,16s-16.6,3.2-23,9.5s-9.5,14-9.5,23s3.2,16.6,9.5,23
	c6.4,6.3,14,9.5,23,9.5s16.6-3.2,23-9.5C70.3,65.1,73.5,57.5,73.5,48.5z"/>
<path class="st1" d="M67.5,48.5c0-7.3-2.6-13.6-7.7-18.7C54.6,24.6,48.3,22,41,22c-7.3,0-13.5,2.6-18.7,7.8
	c-5.2,5.2-7.8,11.4-7.8,18.7c0,7.3,2.6,13.5,7.8,18.7C27.5,72.4,33.7,75,41,75c7.3,0,13.6-2.6,18.8-7.7
	C64.9,62.1,67.5,55.8,67.5,48.5z"/>
</svg>
