<?xml version="1.0" encoding="utf-8"?>
<!-- Generator: Adobe Illustrator 19.2.1, SVG Export Plug-In . SVG Version: 6.00 Build 0)  -->
<!DOCTYPE svg PUBLIC "-//W3C//DTD SVG 1.1//EN" "http://www.w3.org/Graphics/SVG/1.1/DTD/svg11.dtd">
<svg version="1.1" id="Layer_1" xmlns="http://www.w3.org/2000/svg" xmlns:xlink="http://www.w3.org/1999/xlink" x="0px" y="0px"
	 width="400px" height="151px" viewBox="0 0 400 151" style="enable-background:new 0 0 400 151;" xml:space="preserve">
<style type="text/css">
	.st0{fill:#FFFFFF;}
</style>
<g>
	<g transform="matrix( 1, 0, 0, 1, -522,184) ">
		<g>
			<g id="Layer0_0_FILL">
				<path class="st0" d="M892.5-90.5c0-2-1-3-3-3h-32.9c-2.1,0-3.1,1-3.1,3.1v15.8c0,2.1,1,3.2,3.1,3.2h32.9c1.1,0,1.8-0.2,2.3-0.7
					s0.7-1.2,0.7-2.3V-90.5z"/>
			</g>
		</g>
	</g>
	<g transform="matrix( -1, 0, 0, -1, 907.3,216) ">
		<g>
			<g id="Layer0_1_FILL">
				<path class="st0" d="M643.8,158.6c0-2.1-1-3.1-3.1-3.1h-15.8c-2.1,0-3.1,1-3.1,3.1v15.8c0,2.1,1,3.1,3.1,3.1h15.8
					c2.1,0,3.1-1.1,3.1-3.1V158.6z"/>
			</g>
		</g>
	</g>
	<g transform="matrix( -1, 0, 0, -1, 931.15,267) ">
		<g>
			<g id="Layer0_2_FILL">
				<path class="st0" d="M690.5,206.5h-15.8c-2.1,0-3.1,1-3.1,3.1v15.8c0,2.1,1,3.1,3.1,3.1h15.8c2.1,0,3.2-1,3.2-3.1v-15.8
					C693.7,207.5,692.6,206.5,690.5,206.5z"/>
			</g>
		</g>
	</g>
	<g transform="matrix( -1, 0, 0, -1, 905.6,216) ">
		<g>
			<g id="Layer0_3_FILL">
				<path class="st0" d="M694.1,174.4v-15.8c0-2.1-1-3.1-3.1-3.1h-15.8c-2.1,0-3.1,1-3.1,3.1v15.8c0,2.1,1,3.1,3.1,3.1H691
					C693,177.5,694.1,176.4,694.1,174.4z"/>
			</g>
		</g>
	</g>
	<g transform="matrix( 1, 0, 0, 1, -522,184) ">
		<g>
			<g id="Layer0_4_FILL">
				<path class="st0" d="M710.7-145.5c-2.1,0-3.2,1.1-3.2,3.1v15.8c0,2.1,1,3.1,3.2,3.1h15.8c2.1,0,3.1-1,3.1-3.1v-15.8
					c0-2.1-1-3.1-3.1-3.1H710.7z"/>
			</g>
		</g>
	</g>
	<g transform="matrix( 1, 0, 0, 1, 8,-236) ">
		<g>
			<g id="Layer0_5_FILL">
				<path class="st0" d="M173.5,277.6c0-2.1-1-3.1-3.1-3.1h-15.8c-2.1,0-3.1,1.1-3.1,3.1v15.8c0,2.1,1.1,3.1,3.1,3.1h15.8
					c2.1,0,3.1-1,3.1-3.1V277.6z"/>
			</g>
		</g>
	</g>
	<g transform="matrix( -1, 0, 0, -1, 827.15,267) ">
		<g>
			<g id="Layer0_6_FILL">
				<path class="st0" d="M690.5,206.5h-15.8c-2.1,0-3.1,1-3.1,3.1v15.8c0,2.1,1,3.1,3.1,3.1h15.8c2.1,0,3.2-1,3.2-3.1v-15.8
					C693.7,207.5,692.6,206.5,690.5,206.5z"/>
			</g>
		</g>
	</g>
	<g transform="matrix( 1, 0, 0, 1, -44,-236) ">
		<g>
			<g id="Layer0_7_FILL">
				<path class="st0" d="M173.5,293.4v-15.8c0-2.1-1-3.1-3.1-3.1h-15.8c-2.1,0-3.1,1.1-3.1,3.1v15.8c0,2.1,1.1,3.1,3.1,3.1h15.8
					C172.5,296.5,173.5,295.5,173.5,293.4z"/>
			</g>
		</g>
	</g>
	<g transform="matrix( -1, 0, 0, -1, 775.15,267) ">
		<g>
			<g id="Layer0_8_FILL">
				<path class="st0" d="M693.7,209.6c0-2.1-1-3.1-3.2-3.1h-15.8c-2.1,0-3.1,1-3.1,3.1v15.8c0,2.1,1,3.1,3.1,3.1h15.8
					c2.1,0,3.2-1,3.2-3.1V209.6z"/>
			</g>
		</g>
	</g>
	<g transform="matrix( -1, 0, 0, -1, 749.15,267) ">
		<g>
			<g id="Layer0_9_FILL">
				<path class="st0" d="M693.7,209.6c0-2.1-1-3.1-3.2-3.1h-15.8c-2.1,0-3.1,1-3.1,3.1v15.8c0,2.1,1,3.1,3.1,3.1h15.8
					c2.1,0,3.2-1,3.2-3.1V209.6z"/>
			</g>
		</g>
	</g>
	<g transform="matrix( -1, 0, 0, -1, 723.15,267) ">
		<g>
			<g id="Layer0_10_FILL">
				<path class="st0" d="M693.7,209.6c0-2.1-1-3.1-3.2-3.1h-15.8c-2.1,0-3.1,1-3.1,3.1v15.8c0,2.1,1,3.1,3.1,3.1h15.8
					c2.1,0,3.2-1,3.2-3.1V209.6z"/>
			</g>
		</g>
	</g>
</g>
</svg>
