<?xml version="1.0" encoding="utf-8"?>
<!-- Generator: Adobe Illustrator 19.2.1, SVG Export Plug-In . SVG Version: 6.00 Build 0)  -->
<!DOCTYPE svg PUBLIC "-//W3C//DTD SVG 1.1//EN" "http://www.w3.org/Graphics/SVG/1.1/DTD/svg11.dtd">
<svg version="1.1" id="Layer_1" xmlns="http://www.w3.org/2000/svg" xmlns:xlink="http://www.w3.org/1999/xlink" x="0px" y="0px"
	 width="128px" height="84px" viewBox="0 0 128 84" enable-background="new 0 0 128 84" xml:space="preserve">
<path id="Layer0_0_MEMBER_0_1_STROKES" fill="none" stroke="#FFFFFF" stroke-width="2" stroke-linecap="round" stroke-miterlimit="3" d="
	M94.1,41.2H78.4c-2.1,0-3.1,1-3.1,3.1v15.8c0,2.1,1,3.2,3.1,3.2h15.8c2.1,0,3.2-1,3.2-3.2V44.3C97.3,42.2,96.2,41.2,94.1,41.2z"/>
<path id="Layer0_0_MEMBER_1_1_STROKES" fill="none" stroke="#FFFFFF" stroke-width="2" stroke-linecap="round" stroke-miterlimit="3" d="
	M68.1,15.2H52.4c-2.1,0-3.1,1-3.1,3.1v15.8c0,2.1,1,3.2,3.1,3.2h15.8c2.1,0,3.2-1,3.2-3.2V18.3C71.3,16.2,70.2,15.2,68.1,15.2z"/>
<path id="Layer0_0_MEMBER_2_1_STROKES" fill="none" stroke="#FFFFFF" stroke-width="2" stroke-linecap="round" stroke-miterlimit="3" d="
	M42.2,41.2H26.4c-2.1,0-3.1,1.1-3.1,3.2v15.8c0,2.1,1.1,3.1,3.1,3.1h15.8c2.1,0,3.1-1,3.1-3.1V44.4C45.3,42.3,44.3,41.2,42.2,41.2z"
	/>
<path id="Layer0_0_MEMBER_3_1_STROKES" fill="none" stroke="#FFFFFF" stroke-width="2" stroke-linecap="round" stroke-miterlimit="3" d="
	M68.1,41.2H52.3c-2.1,0-3.1,1-3.1,3.1v15.8c0,2.1,1,3.2,3.1,3.2h15.8c2.1,0,3.2-1.1,3.2-3.2V44.3C71.3,42.2,70.2,41.2,68.1,41.2z"/>
<g id="Layer0_0_MEMBER_4_FILL">
	<path fill="#FFFFFF" d="M85.3,58.2l7-6l-7-6v4h-5v4h5V58.2z"/>
</g>
<g id="Layer0_0_MEMBER_5_FILL">
	<path fill="#FFFFFF" d="M66.3,51.2h-4v-5h-4v5h-4l6,7L66.3,51.2z"/>
</g>
<g id="Layer0_0_MEMBER_6_FILL">
	<path fill="#FFFFFF" d="M35.3,54.2h5v-4h-5v-4l-7,6l7,6V54.2z"/>
</g>
<g id="Layer0_0_MEMBER_7_FILL">
	<path fill="#FFFFFF" d="M54.3,27.2h4v5h4v-5h4l-6-7L54.3,27.2z"/>
</g>
</svg>
