<?xml version="1.0" encoding="utf-8"?>
<!-- Generator: Adobe Illustrator 19.2.1, SVG Export Plug-In . SVG Version: 6.00 Build 0)  -->
<!DOCTYPE svg PUBLIC "-//W3C//DTD SVG 1.1//EN" "http://www.w3.org/Graphics/SVG/1.1/DTD/svg11.dtd">
<svg version="1.1" id="Layer_1" xmlns="http://www.w3.org/2000/svg" xmlns:xlink="http://www.w3.org/1999/xlink" x="0px" y="0px"
	 width="218px" height="180px" viewBox="0 0 218 180" style="enable-background:new 0 0 218 180;" xml:space="preserve">
<style type="text/css">
	.st0{fill:#FFFFFF;}
</style>
<g transform="matrix( -1, 0, 0, -1, 1173.3,242) ">
	<g>
		<g id="Layer0_0_FILL">
			<path class="st0" d="M1060.3,180.1c0-2.1-1.1-3.1-3.2-3.1h-15.8c-2.1,0-3.1,1-3.1,3.1v15.8c0,2.1,1,3.1,3.1,3.1h15.8
				c2.1,0,3.2-1.1,3.2-3.1V180.1z"/>
		</g>
	</g>
</g>
<g transform="matrix( -1, 0, 0, -1, 1197.15,293) ">
	<g>
		<g id="Layer0_1_FILL">
			<path class="st0" d="M1107,228h-15.8c-2.1,0-3.1,1-3.1,3.1v15.8c0,2.1,1,3.1,3.1,3.1h15.8c2.1,0,3.2-1,3.2-3.1v-15.8
				C1110.2,229,1109.1,228,1107,228z"/>
		</g>
	</g>
</g>
<g transform="matrix( -1, 0, 0, -1, 1171.6,242) ">
	<g>
		<g id="Layer0_2_FILL">
			<path class="st0" d="M1110.6,195.9v-15.8c0-2.1-1-3.1-3.1-3.1h-15.8c-2.1,0-3.1,1-3.1,3.1v15.8c0,2.1,1,3.1,3.1,3.1h15.8
				C1109.6,199,1110.6,197.9,1110.6,195.9z"/>
		</g>
	</g>
</g>
<g transform="matrix( -1, 0, 0, -1, 1173.3,268) ">
	<g>
		<g id="Layer0_3_FILL">
			<path class="st0" d="M1060.3,180.1c0-2.1-1.1-3.1-3.2-3.1h-15.8c-2.1,0-3.1,1-3.1,3.1v15.8c0,2.1,1,3.1,3.1,3.1h15.8
				c2.1,0,3.2-1.1,3.2-3.1V180.1z"/>
		</g>
	</g>
</g>
<g transform="matrix( -1, 0, 0, -1, 1197.15,319) ">
	<g>
		<g id="Layer0_4_FILL">
			<path class="st0" d="M1107,228h-15.8c-2.1,0-3.1,1-3.1,3.1v15.8c0,2.1,1,3.1,3.1,3.1h15.8c2.1,0,3.2-1,3.2-3.1v-15.8
				C1110.2,229,1109.1,228,1107,228z"/>
		</g>
	</g>
</g>
<g transform="matrix( -1, 0, 0, -1, 1171.6,268) ">
	<g>
		<g id="Layer0_5_FILL">
			<path class="st0" d="M1110.6,195.9v-15.8c0-2.1-1-3.1-3.1-3.1h-15.8c-2.1,0-3.1,1-3.1,3.1v15.8c0,2.1,1,3.1,3.1,3.1h15.8
				C1109.6,199,1110.6,197.9,1110.6,195.9z"/>
		</g>
	</g>
</g>
<g transform="matrix( -1, 0, 0, -1, 1173.3,294) ">
	<g>
		<g id="Layer0_6_FILL">
			<path class="st0" d="M1060.3,180.1c0-2.1-1.1-3.1-3.2-3.1h-15.8c-2.1,0-3.1,1-3.1,3.1v15.8c0,2.1,1,3.1,3.1,3.1h15.8
				c2.1,0,3.2-1.1,3.2-3.1V180.1z"/>
		</g>
	</g>
</g>
<g transform="matrix( -1, 0, 0, -1, 1197.15,345) ">
	<g>
		<g id="Layer0_7_FILL">
			<path class="st0" d="M1107,228h-15.8c-2.1,0-3.1,1-3.1,3.1v15.8c0,2.1,1,3.1,3.1,3.1h15.8c2.1,0,3.2-1,3.2-3.1v-15.8
				C1110.2,229,1109.1,228,1107,228z"/>
		</g>
	</g>
</g>
<g transform="matrix( -1, 0, 0, -1, 1171.6,294) ">
	<g>
		<g id="Layer0_8_FILL">
			<path class="st0" d="M1110.6,195.9v-15.8c0-2.1-1-3.1-3.1-3.1h-15.8c-2.1,0-3.1,1-3.1,3.1v15.8c0,2.1,1,3.1,3.1,3.1h15.8
				C1109.6,199,1110.6,197.9,1110.6,195.9z"/>
		</g>
	</g>
</g>
<g transform="matrix( 1, 0, 0, 1, 0,0) ">
	<g>
		<g id="Layer0_9_FILL">
			<path class="st0" d="M61,124.1v15.8c0,2.1,1,3.1,3.1,3.1h41.7c2.1,0,3.2-1.1,3.2-3.1v-15.8c0-2.1-1-3.1-3.2-3.1H64.1
				C62,121,61,122,61,124.1z"/>
		</g>
	</g>
</g>
<g transform="matrix( 1, 0, 0, 1, 0,0) ">
	<g>
		<g id="Layer0_10_FILL">
			<path class="st0" d="M161,98.1c0-2.1-1-3.1-3.2-3.1h-15.8c-2.1,0-3.1,1-3.1,3.1v41.8c0,2.1,1,3.1,3.1,3.1h15.8
				c2.1,0,3.2-1.1,3.2-3.1V98.1z"/>
		</g>
	</g>
</g>
<g transform="matrix( 1, 0, 0, 1, -131.15,211) ">
	<g>
		<g id="Layer0_11_FILL">
			<path class="st0" d="M263-90h-15.8c-2.1,0-3.1,1-3.1,3.1v15.8c0,2.1,1,3.2,3.1,3.2H263c2.1,0,3.2-1,3.2-3.2v-15.8
				C266.2-89,265.1-90,263-90z"/>
		</g>
	</g>
</g>
</svg>
