<svg xmlns="http://www.w3.org/2000/svg" viewBox="0 0 363 363"><title>sun_anim_explode_14</title><path d="M206.4,126.2a60.4,60.4,0,0,0-46.7,0,60.6,60.6,0,0,0-32,32,59.8,59.8,0,0,0,12.9,65.7,59.1,59.1,0,0,0,19.1,12.9,59.8,59.8,0,0,0,65.7-12.9,58.7,58.7,0,0,0,12.9-19,60.4,60.4,0,0,0,0-46.7,60.9,60.9,0,0,0-31.9-32Z" transform="translate(-1.5)" fill="#fdb813" opacity="0.04" style="isolation:isolate"/><path d="M209,181.5a26,26,0,0,0-44.4-18.4,26,26,0,0,0,36.8,36.8A25,25,0,0,0,209,181.5Z" transform="translate(-1.5)" fill="#eac704" opacity="0.04" style="isolation:isolate"/><path d="M204.2,181.5A21.2,21.2,0,0,0,183,160.3a21.2,21.2,0,0,0-21.2,21.2,21.2,21.2,0,1,0,42.4,0Z" transform="translate(-1.5)" fill="#e0aa17" opacity="0.04" style="isolation:isolate"/><path d="M3,181.5Q3,107,55.8,54.3T183,1.5q74.5,0,127.2,52.8T363,181.5q0,74.5-52.8,127.2T183,361.5q-74.5,0-127.2-52.8T3,181.5Z" transform="translate(-1.5)" fill="none" stroke="#fff" stroke-linejoin="round" stroke-opacity="0.03" stroke-width="3"/></svg>