<svg xmlns="http://www.w3.org/2000/svg" viewBox="0 0 225.8 225.8"><title>sun_anim_explode_07</title><path d="M126.6,80.5A35.6,35.6,0,1,0,137.7,88,34.8,34.8,0,0,0,126.6,80.5Z" fill="#fdb813" fill-opacity="0.5" opacity="0.61" style="isolation:isolate"/><path d="M141.5,113.1a28.3,28.3,0,0,0-28.4-28.4,28.3,28.3,0,0,0-28.4,28.4,28.3,28.3,0,0,0,28.4,28.4,28.3,28.3,0,0,0,28.4-28.4Z" fill="#eac704" opacity="0.61" style="isolation:isolate"/><path d="M136.2,113.1a23.2,23.2,0,0,0-23.1-23.2,23.2,23.2,0,0,0-23.2,23.2,23.2,23.2,0,0,0,39.6,16.3A22.4,22.4,0,0,0,136.2,113.1Z" fill="#e0aa17" opacity="0.61" style="isolation:isolate"/><path d="M55.2,113a55.7,55.7,0,0,1,17-40.8,55.5,55.5,0,0,1,40.7-17,55.7,55.7,0,0,1,40.8,16.9A55.8,55.8,0,0,1,170.6,113a55.5,55.5,0,0,1-16.9,40.7,55.6,55.6,0,0,1-40.8,17,55.5,55.5,0,0,1-40.7-17A55.5,55.5,0,0,1,55.2,113Z" fill="none" stroke="#fff" stroke-linejoin="round" stroke-opacity="0.17" stroke-width="15.55"/><path d="M2,112.9Q2,67,34.5,34.5T112.9,2q45.9,0,78.4,32.5t32.5,78.4q0,45.9-32.5,78.4t-78.4,32.5q-45.9,0-78.4-32.5T2,112.9Z" fill="none" stroke="#fff" stroke-linejoin="round" stroke-opacity="0.21" stroke-width="4"/></svg>