<svg xmlns="http://www.w3.org/2000/svg" viewBox="0 0 279.4 279.4"><title>sun_anim_explode_09</title><path d="M155.3,102.6a40.8,40.8,0,0,0-31.2,0A40,40,0,0,0,102.7,124a40.2,40.2,0,1,0,52.6-21.4Z" transform="translate(0 0)" fill="#fdb813" fill-opacity="0.5" opacity="0.34" style="isolation:isolate"/><path d="M167.3,140.1A27.3,27.3,0,0,0,140,112.8a27.1,27.1,0,0,0-27.2,27.3,27.3,27.3,0,0,0,46.6,19.3A26.4,26.4,0,0,0,167.3,140.1Z" transform="translate(0 0)" fill="#eac704" opacity="0.34" style="isolation:isolate"/><path d="M162.3,140.1a22.2,22.2,0,0,0-37.9-15.8,22.2,22.2,0,1,0,31.4,31.5A21.5,21.5,0,0,0,162.3,140.1Z" transform="translate(0 0)" fill="#e0aa17" opacity="0.34" style="isolation:isolate"/><path d="M64.5,139.8q0-31.1,22.1-53.2t53.1-22.1q31.1,0,53.2,22t22,53.2q0,31.1-22,53.1t-53.2,22.1q-31,0-53.1-22T64.5,139.8Z" transform="translate(0 0)" fill="none" stroke="#fff" stroke-linejoin="round" stroke-opacity="0.14" stroke-width="19.3"/><path d="M1.8,139.7q0-57,40.4-97.4T139.7,1.8q57,0,97.4,40.4t40.5,97.5q0,57-40.4,97.4t-97.5,40.5q-57,0-97.4-40.4T1.8,139.7Z" transform="translate(0 0)" fill="none" stroke="#fff" stroke-linejoin="round" stroke-opacity="0.14" stroke-width="3.6"/></svg>