<svg xmlns="http://www.w3.org/2000/svg" viewBox="0 0 72 72"><title>sun_anim_explode_01</title><path d="M67,36a29.5,29.5,0,0,0-9.1-21.9A29.5,29.5,0,0,0,36,5a29.5,29.5,0,0,0-21.9,9.1A30.1,30.1,0,0,0,5,36a29.5,29.5,0,0,0,9.1,21.9A29.5,29.5,0,0,0,36,67a29.5,29.5,0,0,0,21.9-9.1A29.5,29.5,0,0,0,67,36Z" transform="translate(0 0)" fill="#eac704"/><path d="M61.3,36a24.6,24.6,0,0,0-7.4-17.9A24.2,24.2,0,0,0,36,10.7a24.6,24.6,0,0,0-17.9,7.4A24.6,24.6,0,0,0,10.7,36a24.6,24.6,0,0,0,7.4,17.9A24.6,24.6,0,0,0,36,61.3a24.6,24.6,0,0,0,17.9-7.4A24.6,24.6,0,0,0,61.3,36Z" transform="translate(0 0)" fill="#e0aa17"/><path d="M3,36a31.8,31.8,0,0,1,9.6-23.3A31.9,31.9,0,0,1,36,3a31.5,31.5,0,0,1,23.3,9.7A31.5,31.5,0,0,1,69,36a31.9,31.9,0,0,1-9.7,23.4A31.8,31.8,0,0,1,36,69,32.8,32.8,0,0,1,3,36Z" transform="translate(0 0)" fill="none" stroke="#fdb813" stroke-linejoin="round" stroke-opacity="0.5" stroke-width="6"/></svg>