<svg xmlns="http://www.w3.org/2000/svg" viewBox="0 0 254 254"><title>sun_anim_explode_08</title><path d="M141.6,92.4a38.2,38.2,0,0,0-29.2,0,38.6,38.6,0,0,0-20,20,37.5,37.5,0,1,0,49.2-20Z" transform="translate(0 0)" fill="#fdb813" fill-opacity="0.5" opacity="0.47" style="isolation:isolate"/><path d="M155.1,127.2a27.7,27.7,0,0,0-27.9-27.8,27.8,27.8,0,0,0-27.8,27.8,28,28,0,0,0,27.8,27.9,27.8,27.8,0,0,0,27.9-27.9Z" transform="translate(0 0)" fill="#eac704" opacity="0.47" style="isolation:isolate"/><path d="M149.9,127.3a22.6,22.6,0,0,0-38.7-16.1,22.7,22.7,0,0,0,32,32.1A22,22,0,0,0,149.9,127.3Z" transform="translate(0 0)" fill="#e0aa17" opacity="0.47" style="isolation:isolate"/><path d="M61.2,127.1A63.5,63.5,0,0,1,80.5,80.5Q99.8,61.2,127,61.2t46.5,19.3a63.5,63.5,0,0,1,19.3,46.6q0,27.2-19.3,46.5T127,192.8q-27.2,0-46.5-19.3T61.2,127.1Z" transform="translate(0 0)" fill="none" stroke="#fff" stroke-linejoin="round" stroke-opacity="0.16" stroke-width="17.25"/><path d="M1.9,127q0-51.7,36.7-88.4T127,1.9q51.8,0,88.4,36.7T252.1,127q0,51.8-36.7,88.4T127,252.1q-51.7,0-88.4-36.7T1.9,127Z" transform="translate(0 0)" fill="none" stroke="#fff" stroke-linejoin="round" stroke-opacity="0.17" stroke-width="3.8"/></svg>