<svg xmlns="http://www.w3.org/2000/svg" viewBox="0 0 321.5 321.5"><title>sun_anim_explode_11</title><g opacity="0.12"><path d="M178.9,117.5a46.6,46.6,0,0,0-36.4,0,47.7,47.7,0,0,0-25,25,46.7,46.7,0,1,0,61.4-25Z" transform="translate(0.1 0.1)" fill="#fdb813" fill-opacity="0.5"/></g><g opacity="0.12"><path d="M187.5,161.2a26.3,26.3,0,0,0-44.9-18.7,26.4,26.4,0,0,0,37.3,37.3A25.5,25.5,0,0,0,187.5,161.2Z" transform="translate(0.1 0.1)" fill="#eac704"/></g><g opacity="0.12"><path d="M182.7,161.2a21.5,21.5,0,1,0-6.3,15.2A20.7,20.7,0,0,0,182.7,161.2Z" transform="translate(0.1 0.1)" fill="#e0aa17"/></g><path d="M63.1,160.7q0-40.3,28.7-69t68.9-28.6q40.3,0,69,28.6t28.6,69q0,40.4-28.6,69t-69,28.6q-40.3,0-68.9-28.6T63.1,160.7Z" transform="translate(0.1 0.1)" fill="none" stroke="#fff" stroke-linejoin="round" stroke-opacity="0.09" stroke-width="24.1"/><path d="M1.6,160.7q0-65.8,46.7-112.4Q77.4,19.2,114,8.2a162.5,162.5,0,0,1,46.7-6.6,162.7,162.7,0,0,1,46.7,6.6Q244,19.1,273.2,48.3q46.5,46.6,46.6,112.4T273.1,273.1q-27.8,27.8-62.5,39.1a161.5,161.5,0,0,1-49.9,7.6,161.2,161.2,0,0,1-49.8-7.6Q76.2,301,48.3,273.1,1.7,226.5,1.6,160.7Z" transform="translate(0.1 0.1)" fill="none" stroke="#fff" stroke-linejoin="round" stroke-opacity="0.08" stroke-width="3.3"/></svg>