<svg xmlns="http://www.w3.org/2000/svg" viewBox="0 0 301.8 301.8"><title>sun_anim_explode_10</title><path d="M167.7,110.9a44.7,44.7,0,0,0-33.7,0A43.5,43.5,0,0,0,110.9,134a43.3,43.3,0,1,0,56.8-23.1Z" transform="translate(0 0)" fill="#fdb813" fill-opacity="0.5" opacity="0.22" style="isolation:isolate"/><g opacity="0.22"><path d="M178.1,151.3a26.8,26.8,0,0,0-45.7-19,26.8,26.8,0,1,0,37.8,38A25.9,25.9,0,0,0,178.1,151.3Z" transform="translate(0 0)" fill="#eac704"/></g><path d="M173.1,151.3a21.7,21.7,0,1,0-6.3,15.4A21.1,21.1,0,0,0,173.1,151.3Z" transform="translate(0 0)" fill="#e0aa17" opacity="0.22" style="isolation:isolate"/><path d="M65.2,150.9q0-35.4,25.2-60.6t60.5-25.1q35.4,0,60.6,25.2t25.2,60.5q0,35.5-25.2,60.6t-60.6,25.2q-35.4,0-60.6-25.2T65.2,150.9Z" transform="translate(0 0)" fill="none" stroke="#fff" stroke-linejoin="round" stroke-opacity="0.11" stroke-width="21.55"/><path d="M1.7,150.9q0-61.7,43.8-105.4T150.9,1.7q61.8,0,105.4,43.8t43.8,105.4q0,61.7-43.7,105.4T150.9,300.1q-61.7,0-105.4-43.7T1.7,150.9Z" transform="translate(0 0)" fill="none" stroke="#fff" stroke-linejoin="round" stroke-opacity="0.11" stroke-width="3.45"/></svg>