<svg xmlns="http://www.w3.org/2000/svg" viewBox="0 0 338.2 338.2"><title>sun_anim_explode_12</title><path d="M188.9,122.2a52.1,52.1,0,1,0,16.1,11A50.3,50.3,0,0,0,188.9,122.2Z" transform="translate(0 0)" fill="#fdb813" fill-opacity="0.5" opacity="0.22" style="isolation:isolate"/><path d="M195.7,169.6a26.2,26.2,0,0,0-44.6-18.5,26.2,26.2,0,0,0,37,37A25.2,25.2,0,0,0,195.7,169.6Z" transform="translate(0 0)" fill="#eac704" opacity="0.22" style="isolation:isolate"/><path d="M190.9,169.6a21.3,21.3,0,1,0-6.3,15A20.5,20.5,0,0,0,190.9,169.6Z" transform="translate(0 0)" fill="#e0aa17" opacity="0.22" style="isolation:isolate"/><path d="M58.4,169.1q0-45.7,32.5-78.2t78.2-32.5q45.8,0,78.2,32.5t32.5,78.2q0,45.8-32.5,78.2t-78.2,32.5q-45.7,0-78.2-32.5T58.4,169.1Z" transform="translate(0 0)" fill="none" stroke="#fff" stroke-linejoin="round" stroke-opacity="0.06" stroke-width="26.9"/><path d="M1.6,169.1q0-69.3,49.2-118.4T169.1,1.6q69.3,0,118.4,49.1t49.1,118.4q0,69.3-49.1,118.4T169.1,336.6q-69.3,0-118.3-49.1T1.6,169.1Z" transform="translate(0 0)" fill="none" stroke="#fff" stroke-linejoin="round" stroke-opacity="0.06" stroke-width="3.2"/></svg>