<svg xmlns="http://www.w3.org/2000/svg" viewBox="0 0 101.3 101.3"><title>sun_anim_explode_03</title><path d="M62.5,22.9a30.2,30.2,0,0,0-23.6,0A30.7,30.7,0,0,0,22.8,39a30.2,30.2,0,0,0,6.6,33,29.9,29.9,0,0,0,33,6.5A30.2,30.2,0,0,0,78.5,38.9a30.3,30.3,0,0,0-16-16Z" transform="translate(-0.1 -0.1)" fill="#fdb813" fill-opacity="0.5"/><path d="M80.6,50.7a28.9,28.9,0,0,0-8.7-21.2,28.9,28.9,0,0,0-21.2-8.8,28.8,28.8,0,0,0-21.2,8.8,28.8,28.8,0,0,0-8.8,21.2,28.9,28.9,0,0,0,8.8,21.2,28.9,28.9,0,0,0,21.2,8.7A29.7,29.7,0,0,0,80.6,50.7Z" transform="translate(-0.1 -0.1)" fill="#eac704"/><path d="M75.1,50.7A24.2,24.2,0,0,0,50.7,26.3a23.5,23.5,0,0,0-17.3,7.2,23.5,23.5,0,0,0-7.1,17.2A24.2,24.2,0,0,0,50.7,75.1,24.2,24.2,0,0,0,75.1,50.7Z" transform="translate(-0.1 -0.1)" fill="#e0aa17"/><path d="M15.3,50.8A34.2,34.2,0,0,1,25.7,25.7a34.1,34.1,0,0,1,25-10.4,34.2,34.2,0,0,1,25,10.4A34.3,34.3,0,0,1,86.1,50.8,34.1,34.1,0,0,1,75.7,75.7a34.1,34.1,0,0,1-25,10.5,34,34,0,0,1-25-10.5A34,34,0,0,1,15.3,50.8Z" transform="translate(-0.1 -0.1)" fill="none" stroke="#fed062" stroke-linejoin="round" stroke-opacity="0.35" stroke-width="8.1"/><path d="M2.7,50.7a46.3,46.3,0,0,1,14-34,46.3,46.3,0,0,1,34-14,46.3,46.3,0,0,1,34,14,46.2,46.2,0,0,1,14,34,46.2,46.2,0,0,1-14,34,46.3,46.3,0,0,1-34,14,46.3,46.3,0,0,1-34-14A46.3,46.3,0,0,1,2.7,50.7Z" transform="translate(-0.1 -0.1)" fill="none" stroke="#fee29e" stroke-linejoin="round" stroke-opacity="0.41" stroke-width="5.25"/></svg>