<svg xmlns="http://www.w3.org/2000/svg" viewBox="0 0 160.9 160.9"><title>sun_anim_explode_05</title><path d="M92.8,51A32.1,32.1,0,1,0,103,57.9,31.5,31.5,0,0,0,92.8,51Z" transform="translate(0.1 0)" fill="#fdb813" fill-opacity="0.5"/><path d="M109.9,80.5A29.2,29.2,0,0,0,80.5,51.2,29.2,29.2,0,0,0,51.2,80.5a29.4,29.4,0,0,0,29.3,29.4,29.4,29.4,0,0,0,29.4-29.4Z" transform="translate(0.1 0)" fill="#eac704"/><path d="M104.5,80.5a23.9,23.9,0,0,0-24-23.9A23.9,23.9,0,0,0,56.6,80.5a23.9,23.9,0,0,0,23.9,23.9,23.9,23.9,0,0,0,24-23.9Z" transform="translate(0.1 0)" fill="#e0aa17"/><path d="M112.4,48.4a43.8,43.8,0,0,1,13.3,32.1,43.5,43.5,0,0,1-13.3,31.9,43.6,43.6,0,0,1-32,13.3,43.5,43.5,0,0,1-32-13.3A43.5,43.5,0,0,1,35.2,80.5,43.7,43.7,0,0,1,48.4,48.4a43.5,43.5,0,0,1,32-13.2A43.7,43.7,0,0,1,112.4,48.4Z" transform="translate(0.1 0)" fill="none" stroke="#fff" stroke-linejoin="round" stroke-opacity="0.2" stroke-width="12.85"/><path d="M2.2,80.4q0-32.3,22.9-55.2t55.3-23q32.3,0,55.3,22.9t22.9,55.3q0,32.3-22.9,55.3T80.4,158.6q-32.3,0-55.3-22.9T2.2,80.4Z" transform="translate(0.1 0)" fill="none" stroke="#fff" stroke-linejoin="round" stroke-opacity="0.3" stroke-width="4.5"/></svg>