<svg xmlns="http://www.w3.org/2000/svg" viewBox="0 0 124.2 124.2"><title>sun_anim_explode_04</title><path d="M74,33.6A30.9,30.9,0,0,0,40.1,83.8a30.9,30.9,0,0,0,43.7,0A30.8,30.8,0,0,0,74,33.6Z" transform="translate(0.1 0.1)" fill="#fdb813" fill-opacity="0.5"/><path d="M91.8,62.1A29.7,29.7,0,0,0,62.1,32.4a28.6,28.6,0,0,0-21,8.7,28.6,28.6,0,0,0-8.7,21A29.7,29.7,0,0,0,62.1,91.8,29.7,29.7,0,0,0,91.8,62.1Z" transform="translate(0.1 0.1)" fill="#eac704"/><path d="M86.3,62.1A24.4,24.4,0,0,0,62.1,37.8,23.4,23.4,0,0,0,44.9,45a23.3,23.3,0,0,0-7.1,17.1A24.2,24.2,0,0,0,62.1,86.3,24.1,24.1,0,0,0,86.3,62.1Z" transform="translate(0.1 0.1)" fill="#e0aa17"/><path d="M21.7,62.1A38.9,38.9,0,0,1,33.5,33.5,38.9,38.9,0,0,1,62,21.7,38.9,38.9,0,0,1,90.5,33.5a38.9,38.9,0,0,1,11.8,28.6A38.9,38.9,0,0,1,90.5,90.5,38.9,38.9,0,0,1,62,102.4,38.9,38.9,0,0,1,33.5,90.5,38.9,38.9,0,0,1,21.7,62.1Z" transform="translate(0.1 0.1)" fill="none" stroke="#fee7b0" stroke-linejoin="round" stroke-opacity="0.27" stroke-width="10.45"/><path d="M104.2,19.8A57.3,57.3,0,0,1,121.7,62a57.3,57.3,0,0,1-17.5,42.2A57.5,57.5,0,0,1,62,121.7a57.5,57.5,0,0,1-42.2-17.5A57.4,57.4,0,0,1,2.3,62,57.4,57.4,0,0,1,19.8,19.8,57.5,57.5,0,0,1,62,2.3,57.5,57.5,0,0,1,104.2,19.8Z" transform="translate(0.1 0.1)" fill="none" stroke="#fff" stroke-linejoin="round" stroke-opacity="0.35" stroke-width="4.75"/></svg>