<svg xmlns="http://www.w3.org/2000/svg" viewBox="0 0 194.8 194.8"><title>sun_anim_explode_06</title><path d="M110.4,66.7a33.8,33.8,0,0,0-26,0A33.8,33.8,0,0,0,66.7,84.4a33.4,33.4,0,1,0,43.7-17.7Z" transform="translate(-0.1 -0.1)" fill="#fdb813" fill-opacity="0.5" opacity="0.74" style="isolation:isolate"/><path d="M126.5,97.6A29,29,0,0,0,97.6,68.7,29,29,0,0,0,68.7,97.6a28.9,28.9,0,0,0,28.9,28.9,28.9,28.9,0,0,0,28.9-28.9Z" transform="translate(-0.1 -0.1)" fill="#eac704" opacity="0.74" style="isolation:isolate"/><path d="M121.1,97.6A23.6,23.6,0,0,0,97.6,74,23.6,23.6,0,0,0,74,97.6a23.4,23.4,0,0,0,23.6,23.5,23.4,23.4,0,0,0,23.5-23.5Z" transform="translate(-0.1 -0.1)" fill="#e0aa17" opacity="0.74" style="isolation:isolate"/><path d="M46.6,97.5A49.1,49.1,0,0,1,61.5,61.4,48.9,48.9,0,0,1,97.4,46.6a50.5,50.5,0,0,1,50.8,50.9,48.9,48.9,0,0,1-14.8,35.9,49,49,0,0,1-36,15,48.9,48.9,0,0,1-35.9-15A48.9,48.9,0,0,1,46.6,97.5Z" transform="translate(-0.1 -0.1)" fill="none" stroke="#fff" stroke-linejoin="round" stroke-opacity="0.19" stroke-width="14.05"/><path d="M2.2,97.4q0-39.5,27.9-67.3T97.4,2.2q39.4,0,67.3,27.9t28,67.3q0,39.5-27.9,67.3t-67.4,28q-39.5,0-67.3-27.9T2.2,97.4Z" transform="translate(-0.1 -0.1)" fill="none" stroke="#fff" stroke-linejoin="round" stroke-opacity="0.25" stroke-width="4.25"/></svg>