<svg xmlns="http://www.w3.org/2000/svg" viewBox="0 0 351.9 351.9"><title>sun_anim_explode_13</title><path d="M197.4,125.1a55.6,55.6,0,0,0-42.9,0,54.7,54.7,0,0,0-29.4,29.4,55.9,55.9,0,0,0,0,43A56.3,56.3,0,0,0,136.9,215a52.4,52.4,0,0,0,17.6,11.8,55.3,55.3,0,0,0,43,.1A53.8,53.8,0,0,0,215,215a55.6,55.6,0,0,0,11.8-17.6,55.1,55.1,0,0,0-29.4-72.3Z" transform="translate(-0.1 -0.1)" fill="#fdb813" opacity="0.15" style="isolation:isolate"/><path d="M202,176a26,26,0,0,0-44.4-18.4,26,26,0,0,0,36.8,36.8A25,25,0,0,0,202,176Z" transform="translate(-0.1 -0.1)" fill="#eac704" opacity="0.15" style="isolation:isolate"/><path d="M197.2,176A21.2,21.2,0,0,0,176,154.8,21.2,21.2,0,0,0,154.8,176a21.2,21.2,0,1,0,42.4,0Z" transform="translate(-0.1 -0.1)" fill="#e0aa17" opacity="0.15" style="isolation:isolate"/><path d="M51,176q0-51.7,36.6-88.4T176,51q51.8,0,88.4,36.6T301,176q0,51.8-36.6,88.4T176,301q-51.7,0-88.4-36.6T51,176Z" transform="translate(-0.1 -0.1)" fill="none" stroke="#fff" stroke-linejoin="round" stroke-opacity="0.03" stroke-width="30"/><path d="M1.6,176q0-72.1,51.1-123.3T176,1.6q72.2,0,123.3,51.1T350.4,176q0,72.2-51.1,123.3T176,350.4q-72.2,0-123.3-51.1T1.6,176Z" transform="translate(-0.1 -0.1)" fill="none" stroke="#fff" stroke-linejoin="round" stroke-opacity="0.04" stroke-width="3.1"/></svg>