<svg xmlns="http://www.w3.org/2000/svg" viewBox="0 0 34.99 35"><defs><style>.cls-1{fill:none;}.cls-2{fill:#fff;}</style></defs><title>mute_2</title><g id="Layer_2" data-name="Layer 2"><g id="Layer_2_copy_4" data-name="Layer 2 copy 4"><path class="cls-1" d="M8.4,21.37l0-7.77,5.74,0v0l7.23-7.21v4.49l4.16-4.16A13.48,13.48,0,0,0,6.65,25.52l4.15-4.15Z"/><path class="cls-1" d="M21.37,16.45l0,12.19-6.13-6.08L9.48,28.35A13.48,13.48,0,0,0,28.34,9.48Z"/><path class="cls-2" d="M31.2,6.63A16.38,16.38,0,0,0,28.37,3.8,17.49,17.49,0,0,0,3.79,28.37,16.39,16.39,0,0,0,6.62,31.2,17.49,17.49,0,0,0,31.2,6.63ZM4,17.5A13.48,13.48,0,0,1,25.51,6.65l-4.16,4.16V6.32l-7.23,7.21v0l-5.74,0,0,7.77H10.8L6.65,25.52A13.39,13.39,0,0,1,4,17.5ZM27,27a13.47,13.47,0,0,1-17.56,1.3l5.79-5.79,6.13,6.08,0-12.19,7-7A13.51,13.51,0,0,1,27,27Z"/></g></g></svg>