<?xml version="1.0" encoding="utf-8"?>
<!-- Generator: Adobe Illustrator 18.1.1, SVG Export Plug-In . SVG Version: 6.00 Build 0)  -->
<svg version="1.1" id="Layer_1" xmlns="http://www.w3.org/2000/svg" xmlns:xlink="http://www.w3.org/1999/xlink" x="0px" y="0px"
	 viewBox="0 0 56 56" enable-background="new 0 0 56 56" xml:space="preserve">
<g transform="matrix( 1, 0, 0, 1, 55,246) ">
	<g transform="matrix( 1, 0, 0, 1, 0,0) ">
		<g>
			<g id="Layer1_0_FILL_2_">
				<path fill="#FFFFFF" d="M-5-214.1c0-2.7-0.4-5.3-1.2-7.6l-5.6,2c0.1,0.4,0.2,0.8,0.3,1.1c0.4,1.4,0.5,2.9,0.5,4.5
					c0,1.1-0.1,2.1-0.2,3.1c-0.6,3.1-2.1,5.9-4.5,8.2v0.1c-3.1,3.1-6.9,4.7-11.3,4.7c-4.4,0-8.2-1.6-11.4-4.7h0
					c-3-3.1-4.5-6.9-4.5-11.4c0-4.4,1.5-8.2,4.5-11.3c0,0,0,0,0-0.1c2.4-2.3,5.1-3.8,8.1-4.4v9.8l16.6-11.9L-30.3-244v7.9v0.2
					c-4.7,0.6-8.8,2.6-12.3,6.2h-0.1c-4.2,4.3-6.3,9.5-6.3,15.6c0,6.1,2.1,11.3,6.4,15.6v0.1c4.3,4.3,9.5,6.4,15.6,6.4
					c6,0,11.2-2.1,15.5-6.4h0C-7.1-202.8-5-208-5-214.1z"/>
			</g>
		</g>
	</g>
</g>
</svg>
